<svg width="76" height="36" viewBox="0 0 76 36" fill="none" xmlns="http://www.w3.org/2000/svg">
<path d="M49.7727 7.01982C47.9478 10.291 46.5867 12.9278 45.6879 14.9249C44.7908 16.9255 44.0592 18.8715 43.4963 20.7646C42.9335 22.6578 42.5003 24.6379 42.2001 26.705H37.1484C37.6327 23.7647 38.4906 20.7851 39.7186 17.7732C40.9466 14.7578 42.6436 11.5105 44.8079 8.02267H34.0477V4.15112H49.7744V7.01982H49.7727Z" fill="#6EBBC5"/>
<path d="M70.8613 26.7067H65.3286L61.7896 20.838C61.0614 19.6253 60.4644 18.8425 59.9988 18.4946C59.5332 18.1467 59.0369 17.9693 58.5133 17.9693H57.0585V26.7067H52.2523V4.15112H60.1591C65.5264 4.15112 68.2109 6.19093 68.2109 10.2688C68.2109 11.8021 67.7607 13.1171 66.8636 14.2137C65.9664 15.3104 64.7316 16.0847 63.1574 16.5298V16.5878C64.1961 16.9357 65.3473 18.0818 66.6077 20.0244L70.8613 26.7067ZM57.0585 7.80606V14.3024H59.4172C60.5446 14.3024 61.4485 13.9749 62.1324 13.32C62.8163 12.6651 63.1592 11.8465 63.1592 10.8675C63.1592 8.82767 61.9414 7.80777 59.5042 7.80777H57.0585V7.80606Z" fill="#163663"/>
<path d="M18.176 19.4683C16.5575 19.4683 15.2187 20.6485 14.9731 22.1954V22.1988C14.9697 22.1988 14.9697 22.1988 14.9731 22.2022C14.9441 22.3642 14.9321 22.5365 14.9321 22.7071C14.9321 22.8605 14.9441 23.0158 14.9697 23.1658C15.1863 24.7383 16.5421 25.9441 18.1777 25.9441C19.9668 25.9441 21.4182 24.4961 21.4182 22.7071C21.4165 20.9163 19.9651 19.4683 18.176 19.4683Z" fill="#163663"/>
<path d="M17.2824 16.2281C19.0766 16.2281 20.5229 14.7767 20.5229 12.991C20.5229 12.6567 20.4734 12.3395 20.3847 12.0393C20.2602 11.647 20.0675 11.2837 19.8168 10.9665C19.225 10.2246 18.3108 9.74365 17.2807 9.74365C16.6718 9.74365 16.1004 9.91079 15.6127 10.2058C15.2664 10.4139 14.9577 10.6851 14.7121 11.0074C14.2875 11.5532 14.0402 12.2422 14.0402 12.9893C14.0419 14.7767 15.4933 16.2281 17.2824 16.2281Z" fill="#163663"/>
<path d="M29.1476 3.60205H12.5443L12.6569 4.47016L13.1566 8.28713C13.3698 8.09952 13.5949 7.92385 13.832 7.77035C14.8246 7.11202 16.01 6.73169 17.2823 6.73169C19.363 6.73169 21.2033 7.74477 22.3375 9.30874C22.5831 9.64302 22.7997 10.0046 22.9719 10.3883C23.3352 11.1814 23.5399 12.0615 23.5399 12.991C23.5399 14.7562 22.8065 16.3526 21.6246 17.4918C23.3147 18.609 24.4319 20.5277 24.4319 22.7107C24.4319 26.1644 21.6297 28.9632 18.176 28.9632C15.0105 28.9632 12.3994 26.6113 11.9866 23.5533L11.9491 23.2702L11.9457 23.2446L9.3823 3.60205H6.78479C6.01901 3.60205 5.3999 4.22286 5.3999 4.98694V29.9081C5.3999 30.6738 6.02071 31.2929 6.78479 31.2929H13.4943C13.4602 30.9689 13.5063 30.6397 13.6342 30.3361C13.6376 30.3191 13.6563 30.2782 13.6751 30.2355C13.9173 29.7409 14.3215 29.3862 14.8246 29.2122C15.0361 29.1423 15.2476 29.1082 15.4608 29.1082C16.2726 29.1082 16.9924 29.5908 17.2976 30.3379C17.3113 30.3686 17.3266 30.4112 17.342 30.4555C17.4341 30.7284 17.4631 31.0132 17.4358 31.2929H19.6649C19.6376 30.9791 19.6854 30.6619 19.8082 30.3668C19.8116 30.3498 19.8303 30.3089 19.8491 30.2662C20.0913 29.7716 20.4955 29.4169 20.9986 29.2429C21.2101 29.173 21.4216 29.1389 21.6348 29.1389C22.4466 29.1389 23.1664 29.6215 23.4716 30.3686C23.4853 30.3993 23.5006 30.4419 23.516 30.4862C23.6047 30.7489 23.6354 31.0218 23.6132 31.2912H29.1493C29.9151 31.2912 30.5342 30.6704 30.5342 29.9064V4.98694C30.5342 4.22286 29.9134 3.60205 29.1476 3.60205Z" fill="#163663"/>
<path d="M11.9476 23.2682L11.9851 23.5513C12.3978 26.6093 15.009 28.9612 18.1744 28.9612C21.6281 28.9612 24.4303 26.1625 24.4303 22.7088C24.4303 20.5274 23.3132 18.6087 21.623 17.4899C22.8032 16.3506 23.5383 14.7542 23.5383 12.989C23.5383 12.0595 23.3336 11.1794 22.9704 10.3864C22.7998 10.0026 22.5832 9.63936 22.3359 9.30678C21.2017 7.74282 19.3615 6.72974 17.2807 6.72974C16.0084 6.72974 14.8248 7.11007 13.8305 7.7684C13.5934 7.9219 13.3683 8.09757 13.1551 8.28517L12.6553 4.46821L12.5428 3.6001H9.38074L11.9424 23.2426L11.9476 23.2682ZM18.1761 25.9459C16.5405 25.9459 15.1846 24.7401 14.968 23.1676C14.9425 23.0175 14.9305 22.8623 14.9305 22.7088C14.9305 22.5382 14.9425 22.366 14.9714 22.204C14.968 22.2005 14.968 22.2005 14.9714 22.2005V22.1971C15.217 20.6502 16.5559 19.47 18.1744 19.47C19.9635 19.47 21.4149 20.918 21.4149 22.7105C21.4166 24.4996 19.9652 25.9459 18.1761 25.9459ZM14.7139 11.0089C14.9595 10.6883 15.2682 10.4171 15.6144 10.2073C16.1022 9.91054 16.6736 9.7451 17.2824 9.7451C18.3126 9.7451 19.2267 10.2244 19.8185 10.968C20.0693 11.2852 20.2603 11.6485 20.3865 12.0407C20.4735 12.3409 20.5246 12.6581 20.5246 12.9924C20.5246 14.7781 19.0766 16.2295 17.2841 16.2295C15.495 16.2295 14.0436 14.7781 14.0436 12.9924C14.0419 12.2437 14.2875 11.5564 14.7139 11.0089Z" fill="#6EBBC5"/>
<path d="M23.0095 30.6584C23.001 30.6311 22.9924 30.6055 22.9822 30.5817C22.7588 30.0359 22.2198 29.6743 21.6365 29.6743C21.4813 29.6743 21.3244 29.6999 21.1709 29.7494C20.8059 29.8756 20.5092 30.1348 20.342 30.4776C20.3267 30.51 20.3182 30.5288 20.3113 30.5475C20.209 30.7931 20.1749 31.0456 20.2039 31.2912C20.2158 31.3901 20.2363 31.489 20.2687 31.5845C20.3915 31.9512 20.6525 32.248 20.9987 32.4202C21.3466 32.5925 21.7372 32.6181 22.1021 32.4935H22.1039C22.4688 32.3708 22.7656 32.1115 22.9379 31.7636C23.0129 31.6135 23.0572 31.4532 23.0777 31.2912C23.0999 31.0831 23.0794 30.8665 23.0095 30.6584Z" fill="#6EBBC5"/>
<path d="M16.8357 30.6274C16.8272 30.6001 16.8186 30.5745 16.8084 30.5507C16.585 30.0049 16.046 29.6433 15.4627 29.6433C15.3075 29.6433 15.1506 29.6689 14.9971 29.7184C14.6322 29.8446 14.3354 30.1038 14.1682 30.4466C14.1529 30.479 14.1444 30.4978 14.1375 30.5165C14.0301 30.7724 13.9977 31.0367 14.0335 31.2908C14.0455 31.3795 14.0659 31.4665 14.0949 31.5535C14.2177 31.9202 14.4787 32.2169 14.8249 32.3892C15.1728 32.5615 15.5634 32.587 15.9284 32.4625H15.9301C16.295 32.3397 16.5918 32.0805 16.7641 31.7326C16.834 31.591 16.8783 31.4426 16.9005 31.2926C16.9295 31.0725 16.9107 30.8457 16.8357 30.6274Z" fill="#6EBBC5"/>
<path d="M33.9667 30.0226C33.976 29.8309 33.9826 29.5445 33.9865 29.1633C33.9916 28.7821 33.9909 28.4951 33.9843 28.3022C34.0803 28.3045 34.1582 28.3056 34.218 28.3056C34.2869 28.3056 34.3613 28.3045 34.4414 28.3022L34.4371 28.5746C34.4714 28.5216 34.5026 28.4787 34.5309 28.446C34.5602 28.4122 34.5981 28.3811 34.6445 28.3529C34.6909 28.3248 34.7455 28.3028 34.8081 28.287C34.8719 28.2701 34.9376 28.2616 35.0053 28.2616C35.0561 28.2616 35.1054 28.2667 35.1531 28.2768C35.2008 28.2858 35.2441 28.2994 35.2831 28.3174C35.3232 28.3343 35.3572 28.3541 35.385 28.3766C35.414 28.3992 35.4385 28.4246 35.4587 28.4528C35.4788 28.4798 35.501 28.5204 35.5255 28.5746C35.5489 28.5351 35.5704 28.5024 35.5898 28.4764C35.6103 28.4494 35.6376 28.4217 35.6716 28.3936C35.7057 28.3654 35.7438 28.3417 35.786 28.3225C35.8282 28.3033 35.8757 28.2887 35.9284 28.2785C35.9822 28.2672 36.0378 28.2616 36.0954 28.2616C36.1936 28.2616 36.2867 28.278 36.3747 28.3107C36.4626 28.3422 36.5326 28.393 36.5847 28.4629C36.6366 28.5317 36.6644 28.6174 36.6679 28.72C36.6697 28.7742 36.6685 28.8537 36.6641 28.9586C36.6598 29.0635 36.6561 29.2349 36.6529 29.4728C36.6496 29.7097 36.6497 29.893 36.653 30.0226C36.5705 30.0204 36.4977 30.0193 36.4345 30.0193C36.36 30.0193 36.2726 30.0204 36.1722 30.0226C36.1774 29.8772 36.1819 29.7249 36.1855 29.5659L36.1926 29.1785C36.1949 29.0804 36.1949 28.9975 36.1926 28.9298C36.1899 28.8497 36.1749 28.7894 36.1475 28.7488C36.1213 28.7071 36.0881 28.6778 36.048 28.6608C36.0091 28.6428 35.9653 28.6338 35.9168 28.6338C35.866 28.6338 35.8201 28.6434 35.779 28.6625C35.739 28.6817 35.7017 28.7127 35.667 28.7556C35.6335 28.7984 35.6081 28.8486 35.5909 28.9061C35.5736 28.9625 35.5623 29.0426 35.5568 29.1464C35.5512 29.249 35.5485 29.3843 35.5486 29.5524L35.5527 30.0226C35.459 30.0204 35.3811 30.0193 35.319 30.0193C35.257 30.0193 35.1741 30.0204 35.0703 30.0226C35.0753 29.9358 35.0805 29.7582 35.086 29.4898C35.0916 29.2214 35.0927 29.0403 35.0896 28.9467C35.0879 28.8971 35.0825 28.8554 35.0735 28.8215C35.0644 28.7866 35.0469 28.7539 35.021 28.7234C34.9963 28.6919 34.9673 28.6687 34.934 28.6541C34.9008 28.6394 34.8628 28.6321 34.8199 28.6321C34.7409 28.6321 34.6724 28.658 34.6143 28.7099C34.5563 28.7618 34.5146 28.8311 34.4894 28.918C34.4653 29.0048 34.4513 29.174 34.4474 29.4255C34.4446 29.6759 34.4458 29.8749 34.4508 30.0226C34.3469 30.0204 34.2684 30.0193 34.2154 30.0193C34.1556 30.0193 34.0727 30.0204 33.9667 30.0226Z" fill="#2B4872"/>
<path d="M37.1455 28.6794C37.1586 28.5982 37.1662 28.5413 37.1685 28.5086C37.1719 28.4759 37.1775 28.4263 37.1854 28.3597C37.3377 28.3236 37.4722 28.2983 37.5891 28.2836C37.7059 28.2689 37.8191 28.2616 37.9286 28.2616C38.0527 28.2616 38.1672 28.2763 38.272 28.3056C38.3767 28.3338 38.4596 28.3795 38.5204 28.4426C38.5812 28.5058 38.6136 28.5966 38.6177 28.715C38.6199 28.7793 38.6164 28.9433 38.6073 29.2073C38.5982 29.47 38.5967 29.7418 38.6029 30.0226C38.5171 30.0204 38.438 30.0193 38.3658 30.0193C38.297 30.0193 38.2163 30.0204 38.1239 30.0226C38.1339 29.8862 38.1404 29.7283 38.1433 29.549L38.151 29.1277C38.1091 29.1559 38.077 29.1757 38.0548 29.187C38.0326 29.1982 38.0076 29.2089 37.9798 29.2191C37.9518 29.2281 37.9027 29.2428 37.8323 29.2631C37.7619 29.2823 37.7054 29.2992 37.6631 29.3138C37.6207 29.3285 37.5823 29.3454 37.548 29.3646C37.5148 29.3826 37.4867 29.4035 37.4638 29.4272C37.4409 29.4497 37.4242 29.474 37.4138 29.4999C37.4045 29.5247 37.4003 29.5518 37.4013 29.5811C37.4029 29.6285 37.4179 29.6696 37.4462 29.7046C37.4755 29.7384 37.5113 29.7621 37.5535 29.7757C37.5957 29.7892 37.645 29.796 37.7015 29.796C37.7376 29.796 37.7753 29.7931 37.8146 29.7875C37.855 29.7819 37.9087 29.7678 37.9756 29.7452C37.9541 29.8095 37.9298 29.9054 37.9025 30.0328C37.8228 30.0463 37.7594 30.0548 37.7121 30.0582C37.6648 30.0616 37.6208 30.0632 37.5802 30.0632C37.438 30.0632 37.3206 30.0441 37.2279 30.0057C37.1352 29.9674 37.0654 29.9065 37.0186 29.823C36.9728 29.7396 36.9485 29.6556 36.9457 29.571C36.944 29.5225 36.9508 29.4745 36.9662 29.4272C36.9815 29.3798 37.0048 29.3364 37.0362 29.2969C37.0676 29.2574 37.1086 29.2197 37.1593 29.1836C37.2099 29.1464 37.2838 29.1108 37.3808 29.077C37.4778 29.042 37.6064 29.0071 37.7665 28.9721C37.8091 28.9631 37.8533 28.9524 37.8992 28.94C37.945 28.9264 37.9812 28.9135 38.0079 28.9011C38.0357 28.8887 38.0594 28.8729 38.079 28.8537C38.0987 28.8334 38.1126 28.8125 38.1209 28.7911C38.1303 28.7697 38.1347 28.7477 38.1339 28.7251C38.1324 28.6811 38.1165 28.6439 38.0861 28.6135C38.0569 28.583 38.0189 28.5622 37.9723 28.5509C37.9267 28.5385 37.8763 28.5323 37.821 28.5323C37.6156 28.5323 37.3904 28.5813 37.1455 28.6794Z" fill="#2B4872"/>
<path d="M39.0278 30.0226L39.0467 29.5828L39.0569 28.7387L39.0509 28.0163C39.0487 27.8855 39.0464 27.7845 39.044 27.7135C39.1626 27.7157 39.2467 27.7169 39.2963 27.7169C39.355 27.7169 39.4323 27.7157 39.5281 27.7135L39.5113 28.2633L39.5004 29.1396L39.5058 29.7943L39.5119 30.0226C39.4114 30.0204 39.3323 30.0193 39.2748 30.0193C39.2093 30.0193 39.127 30.0204 39.0278 30.0226ZM39.535 29.0601L39.8643 28.6405C39.8924 28.6044 39.9259 28.5599 39.9647 28.5069C40.0035 28.4539 40.0526 28.3857 40.1118 28.3022C40.2292 28.3045 40.315 28.3056 40.3692 28.3056C40.4437 28.3056 40.5379 28.3045 40.6518 28.3022L40.1166 28.9417L40.0209 29.0635C40.1077 29.1943 40.3471 29.514 40.7391 30.0226C40.6374 30.0204 40.5505 30.0193 40.4783 30.0193C40.406 30.0193 40.3164 30.0204 40.2093 30.0226C40.1402 29.9155 40.0836 29.8298 40.0397 29.7655C39.9969 29.7001 39.9571 29.6431 39.9205 29.5946L39.6187 29.1836C39.6105 29.1723 39.5825 29.1311 39.535 29.0601Z" fill="#2B4872"/>
<path d="M42.4542 29.6386C42.4418 29.7052 42.425 29.8247 42.4038 29.9973C42.2828 30.0232 42.1807 30.0407 42.0975 30.0497C42.0143 30.0587 41.9304 30.0632 41.8458 30.0632C41.6979 30.0632 41.5648 30.0486 41.4465 30.0193C41.3292 29.9899 41.2253 29.9364 41.1346 29.8586C41.0439 29.7796 40.9758 29.6832 40.9301 29.5693C40.8845 29.4554 40.8596 29.3358 40.8553 29.2106C40.8506 29.0719 40.8703 28.9377 40.9144 28.808C40.9585 28.6772 41.0225 28.5706 41.1066 28.4883C41.1918 28.4048 41.2897 28.3462 41.4003 28.3123C41.5108 28.2774 41.627 28.2599 41.7489 28.2599C41.864 28.2599 41.9739 28.2746 42.0787 28.3039C42.1835 28.3321 42.272 28.3789 42.3442 28.4443C42.4175 28.5097 42.4743 28.5887 42.5147 28.6811C42.5562 28.7725 42.5789 28.8746 42.5827 28.9873C42.5845 29.0403 42.5807 29.095 42.5714 29.1514L41.3307 29.1531C41.3298 29.1948 41.3299 29.2281 41.3307 29.2529C41.3333 29.3285 41.3486 29.3978 41.3767 29.461C41.4048 29.5242 41.4444 29.5777 41.4956 29.6217C41.5467 29.6657 41.6071 29.6984 41.6766 29.7198C41.7462 29.7401 41.8142 29.7503 41.8808 29.7503C41.9587 29.7503 42.0424 29.7418 42.1321 29.7249C42.223 29.708 42.3303 29.6792 42.4542 29.6386ZM41.3375 28.9552L42.1297 28.9569C42.1279 28.9027 42.1248 28.8627 42.1206 28.8368C42.1163 28.8108 42.1074 28.7815 42.0939 28.7488C42.0814 28.715 42.0646 28.6856 42.0435 28.6608C42.0223 28.6349 41.9979 28.6135 41.9702 28.5966C41.9425 28.5796 41.9105 28.5667 41.8741 28.5576C41.8388 28.5486 41.8008 28.5441 41.7602 28.5441C41.7128 28.5441 41.6668 28.5514 41.6222 28.5661C41.5787 28.5808 41.5388 28.6022 41.5025 28.6304C41.4662 28.6586 41.4368 28.6902 41.4143 28.7251C41.3929 28.7601 41.3771 28.7939 41.367 28.8266C41.3568 28.8582 41.3469 28.9011 41.3375 28.9552Z" fill="#2B4872"/>
<path d="M43.555 30.8008C43.529 30.6317 43.5085 30.5099 43.4935 30.4354C43.6036 30.4862 43.7066 30.5115 43.8025 30.5115C43.8318 30.5115 43.8616 30.5076 43.8918 30.4997C43.922 30.4929 43.9499 30.4828 43.9754 30.4693C43.992 30.4602 44.0085 30.4473 44.0249 30.4303C44.0423 30.4134 44.0655 30.3824 44.0945 30.3373C44.1234 30.2922 44.1484 30.2476 44.1695 30.2037C44.1863 30.1664 44.2033 30.1196 44.2206 30.0632L43.8334 29.033L43.5513 28.3022C43.6699 28.3045 43.7551 28.3056 43.807 28.3056C43.8668 28.3056 43.9452 28.3045 44.0422 28.3022C44.069 28.3958 44.0938 28.477 44.1165 28.5458L44.2953 29.077C44.3506 29.2405 44.3903 29.3635 44.4145 29.4458C44.4299 29.4999 44.4481 29.5715 44.4692 29.6606C44.4996 29.558 44.5261 29.4745 44.5487 29.4103C44.5888 29.293 44.6449 29.1362 44.7172 28.94L44.8677 28.5357C44.8946 28.4635 44.9218 28.3857 44.9494 28.3022C45.0511 28.3045 45.1284 28.3056 45.1814 28.3056C45.23 28.3056 45.3112 28.3045 45.4251 28.3022L44.8231 29.7621L44.5623 30.4067C44.5257 30.4901 44.4901 30.555 44.4555 30.6012C44.4275 30.6407 44.3965 30.6745 44.3625 30.7027C44.3296 30.7298 44.2942 30.7523 44.2565 30.7704C44.2087 30.7929 44.1569 30.811 44.1009 30.8245C44.037 30.838 43.9724 30.8448 43.9069 30.8448C43.8697 30.8448 43.8177 30.8414 43.7509 30.8347C43.684 30.8279 43.6188 30.8166 43.555 30.8008Z" fill="#2B4872"/>
<path d="M46.4748 28.2616C46.6046 28.2616 46.7294 28.2813 46.8492 28.3208C46.9702 28.3592 47.0731 28.4167 47.1581 28.4934C47.2442 28.5689 47.31 28.662 47.3555 28.7725C47.401 28.8819 47.4258 28.9975 47.4299 29.1193C47.4343 29.2479 47.4165 29.3719 47.3766 29.4915C47.3366 29.611 47.2764 29.7148 47.1959 29.8027C47.1153 29.8896 47.0132 29.955 46.8894 29.999C46.7667 30.0418 46.6349 30.0632 46.4938 30.0632C46.3629 30.0632 46.2376 30.0441 46.1178 30.0057C45.9991 29.9663 45.8967 29.9076 45.8105 29.8298C45.7243 29.752 45.6574 29.6572 45.6096 29.5456C45.5629 29.4339 45.5375 29.3172 45.5333 29.1954C45.5291 29.0714 45.5448 28.9529 45.5805 28.8402C45.6161 28.7274 45.6742 28.627 45.7547 28.539C45.8364 28.4511 45.9418 28.3828 46.0711 28.3343C46.2003 28.2858 46.3349 28.2616 46.4748 28.2616ZM46.4867 28.6101C46.3885 28.6101 46.3013 28.6343 46.2251 28.6828C46.15 28.7302 46.0949 28.8012 46.0597 28.896C46.0257 28.9907 46.0106 29.0939 46.0144 29.2056C46.0177 29.3037 46.0359 29.3911 46.069 29.4678C46.1032 29.5445 46.1561 29.6065 46.2277 29.6539C46.3004 29.7012 46.3853 29.7249 46.4823 29.7249C46.5816 29.7249 46.6677 29.7007 46.7405 29.6522C46.8144 29.6025 46.8684 29.5304 46.9024 29.4356C46.9375 29.3398 46.9531 29.2343 46.9492 29.1193C46.946 29.0257 46.9284 28.9405 46.8965 28.8638C46.8645 28.7871 46.8128 28.7257 46.7413 28.6794C46.6709 28.6332 46.586 28.6101 46.4867 28.6101Z" fill="#2B4872"/>
<path d="M49.4986 30.0226C49.3992 30.0204 49.323 30.0193 49.27 30.0193C49.2034 30.0193 49.1278 30.0204 49.0433 30.0226L49.0371 29.7418C49.0071 29.7892 48.9808 29.8275 48.9581 29.8569C48.9354 29.8851 48.9053 29.9133 48.8679 29.9414C48.8304 29.9685 48.7894 29.9905 48.7449 30.0074C48.7003 30.0232 48.6488 30.0362 48.5905 30.0463C48.5333 30.0576 48.472 30.0632 48.4065 30.0632C48.2801 30.0632 48.1695 30.0452 48.0746 30.0091C47.9797 29.9719 47.9033 29.9161 47.8455 29.8416C47.7888 29.7672 47.7581 29.6606 47.7534 29.5219L47.7522 29.4864L47.7644 29.0499L47.7702 28.4748C47.7698 28.4285 47.7684 28.371 47.766 28.3022C47.8733 28.3045 47.9574 28.3056 48.0184 28.3056C48.0827 28.3056 48.1605 28.3045 48.2518 28.3022L48.2222 29.0736C48.2209 29.1334 48.2198 29.1841 48.2189 29.2259C48.2192 29.2665 48.2196 29.2958 48.2202 29.3138C48.223 29.395 48.2371 29.4627 48.2627 29.5168C48.2893 29.5698 48.333 29.6104 48.3938 29.6386C48.4557 29.6668 48.521 29.6809 48.5899 29.6809C48.6553 29.6809 48.717 29.6685 48.7748 29.6437C48.8271 29.6212 48.8711 29.5896 48.907 29.549C48.944 29.5084 48.9743 29.4537 48.9979 29.3849C49.0154 29.3353 49.0277 29.2665 49.0349 29.1785C49.0407 29.1165 49.0444 29.0099 49.046 28.8588C49.0488 28.6761 49.0487 28.4905 49.0457 28.3022C49.1575 28.3045 49.2427 28.3056 49.3014 28.3056C49.368 28.3056 49.443 28.3045 49.5264 28.3022C49.5184 28.4635 49.5111 28.6653 49.5047 28.9078C49.4982 29.1492 49.4949 29.3488 49.4946 29.5067C49.4943 29.6634 49.4956 29.8354 49.4986 30.0226Z" fill="#2B4872"/>
<path d="M49.9167 30.0226L49.9385 29.2191L49.9361 28.7522C49.9351 28.6563 49.933 28.5599 49.9297 28.4629C49.9291 28.446 49.9261 28.3924 49.9208 28.3022C50.0258 28.3045 50.1032 28.3056 50.1528 28.3056C50.2104 28.3056 50.2865 28.3045 50.3812 28.3022L50.3809 28.5407C50.4217 28.4798 50.4568 28.4347 50.4863 28.4054C50.5157 28.3749 50.5487 28.349 50.5852 28.3276C50.6228 28.3061 50.6646 28.2898 50.7105 28.2785C50.7564 28.2672 50.8036 28.2616 50.8521 28.2616C50.8972 28.2616 50.9437 28.2672 50.9915 28.2785C50.995 28.3834 51.0046 28.5165 51.0203 28.6778C50.9531 28.6597 50.8924 28.6507 50.8382 28.6507C50.7728 28.6507 50.715 28.6608 50.6649 28.6811C50.6159 28.7003 50.5718 28.7302 50.5326 28.7708C50.4944 28.8103 50.4634 28.8593 50.4394 28.918C50.4196 28.9653 50.4059 29.0268 50.3983 29.1024C50.3912 29.161 50.3868 29.2614 50.3848 29.4035C50.384 29.5456 50.386 29.6854 50.3906 29.823C50.3924 29.876 50.3964 29.9426 50.4025 30.0226C50.3167 30.0204 50.2382 30.0193 50.1671 30.0193C50.0971 30.0193 50.0137 30.0204 49.9167 30.0226Z" fill="#2B4872"/>
<path d="M52.0856 29.9905L52.0357 29.6183C52.1478 29.6634 52.2426 29.695 52.3199 29.7131C52.3972 29.73 52.468 29.7384 52.5324 29.7384C52.5967 29.7384 52.6506 29.7311 52.6941 29.7165C52.7376 29.7007 52.7695 29.6781 52.79 29.6488C52.8104 29.6183 52.82 29.5868 52.8189 29.554C52.8184 29.5394 52.8163 29.5259 52.8125 29.5134C52.8098 29.501 52.8043 29.4881 52.7959 29.4745C52.7887 29.461 52.7798 29.4486 52.7693 29.4373C52.7598 29.4249 52.7464 29.4114 52.7289 29.3967C52.7115 29.3809 52.6865 29.3612 52.6541 29.3375L52.5603 29.2648C52.4699 29.196 52.4009 29.1418 52.3533 29.1024C52.3057 29.0629 52.2654 29.0229 52.2324 28.9823C52.1994 28.9405 52.1737 28.8971 52.1552 28.852C52.1378 28.8058 52.1283 28.759 52.1267 28.7116C52.1239 28.6293 52.1461 28.5509 52.1932 28.4764C52.2415 28.402 52.313 28.3479 52.4077 28.314C52.5025 28.2791 52.6147 28.2616 52.7445 28.2616C52.8923 28.2616 53.0633 28.2791 53.2575 28.314L53.2915 28.6676C53.1588 28.6146 53.0321 28.5881 52.9113 28.5881C52.8459 28.5881 52.7885 28.5949 52.7394 28.6084C52.6913 28.6208 52.6569 28.6405 52.6364 28.6676C52.6159 28.6935 52.6061 28.7229 52.6073 28.7556C52.6079 28.7747 52.6119 28.7939 52.6194 28.8131C52.6268 28.8311 52.6393 28.8503 52.6569 28.8706C52.6745 28.8909 52.6943 28.9101 52.7164 28.9281C52.7396 28.9462 52.787 28.9817 52.8588 29.0347C52.9306 29.0877 52.9931 29.1356 53.0465 29.1785C53.101 29.2214 53.1459 29.2648 53.1813 29.3088C53.2166 29.3516 53.2441 29.3978 53.2639 29.4475C53.2836 29.4971 53.2943 29.5473 53.2961 29.598C53.2989 29.6826 53.2757 29.761 53.2262 29.8332C53.1767 29.9054 53.1002 29.9617 52.9967 30.0023C52.8931 30.0429 52.7764 30.0632 52.6467 30.0632C52.579 30.0632 52.4964 30.0576 52.399 30.0463C52.3016 30.0362 52.1971 30.0176 52.0856 29.9905Z" fill="#2B4872"/>
<path d="M53.7371 28.6794C53.7501 28.5982 53.7578 28.5413 53.76 28.5086C53.7634 28.4759 53.7691 28.4263 53.777 28.3597C53.9292 28.3236 54.0638 28.2983 54.1806 28.2836C54.2975 28.2689 54.4106 28.2616 54.5201 28.2616C54.6442 28.2616 54.7587 28.2763 54.8635 28.3056C54.9683 28.3338 55.0511 28.3795 55.1119 28.4426C55.1727 28.5058 55.2052 28.5966 55.2092 28.715C55.2114 28.7793 55.2079 28.9433 55.1989 29.2073C55.1898 29.47 55.1883 29.7418 55.1944 30.0226C55.1086 30.0204 55.0296 30.0193 54.9574 30.0193C54.8885 30.0193 54.8079 30.0204 54.7154 30.0226C54.7254 29.8862 54.7319 29.7283 54.7349 29.549L54.7425 29.1277C54.7006 29.1559 54.6686 29.1757 54.6464 29.187C54.6242 29.1982 54.5992 29.2089 54.5713 29.2191C54.5434 29.2281 54.4942 29.2428 54.4238 29.2631C54.3534 29.2823 54.297 29.2992 54.2546 29.3138C54.2122 29.3285 54.1739 29.3454 54.1395 29.3646C54.1063 29.3826 54.0782 29.4035 54.0553 29.4272C54.0324 29.4497 54.0157 29.474 54.0053 29.4999C53.996 29.5247 53.9919 29.5518 53.9929 29.5811C53.9945 29.6285 54.0094 29.6696 54.0377 29.7046C54.0671 29.7384 54.1028 29.7621 54.1451 29.7757C54.1873 29.7892 54.2366 29.796 54.293 29.796C54.3291 29.796 54.3668 29.7931 54.4061 29.7875C54.4466 29.7819 54.5002 29.7678 54.5672 29.7452C54.5457 29.8095 54.5213 29.9054 54.494 30.0328C54.4144 30.0463 54.3509 30.0548 54.3036 30.0582C54.2563 30.0616 54.2124 30.0632 54.1718 30.0632C54.0296 30.0632 53.9121 30.0441 53.8194 30.0057C53.7267 29.9674 53.6569 29.9065 53.6101 29.823C53.5644 29.7396 53.5401 29.6556 53.5372 29.571C53.5355 29.5225 53.5424 29.4745 53.5577 29.4272C53.573 29.3798 53.5964 29.3364 53.6277 29.2969C53.6591 29.2574 53.7001 29.2197 53.7508 29.1836C53.8015 29.1464 53.8753 29.1108 53.9723 29.077C54.0693 29.042 54.1979 29.0071 54.3581 28.9721C54.4006 28.9631 54.4449 28.9524 54.4907 28.94C54.5365 28.9264 54.5727 28.9135 54.5994 28.9011C54.6272 28.8887 54.6509 28.8729 54.6706 28.8537C54.6902 28.8334 54.7042 28.8125 54.7125 28.7911C54.7219 28.7697 54.7262 28.7477 54.7254 28.7251C54.7239 28.6811 54.708 28.6439 54.6776 28.6135C54.6484 28.583 54.6104 28.5622 54.5638 28.5509C54.5182 28.5385 54.4678 28.5323 54.4125 28.5323C54.2071 28.5323 53.982 28.5813 53.7371 28.6794Z" fill="#2B4872"/>
<path d="M55.621 30.0226C55.6314 29.8321 55.6401 29.4898 55.647 28.9958C55.655 28.5007 55.6557 28.0733 55.6491 27.7135C55.7665 27.7157 55.8501 27.7169 55.8997 27.7169C55.9663 27.7169 56.0475 27.7157 56.1433 27.7135L56.1237 28.331L56.1113 29.708L56.1153 30.0226C56.0226 30.0204 55.9442 30.0193 55.8799 30.0193C55.8584 30.0193 55.7721 30.0204 55.621 30.0226Z" fill="#2B4872"/>
<path d="M58.064 29.6386C58.0516 29.7052 58.0348 29.8247 58.0136 29.9973C57.8926 30.0232 57.7905 30.0407 57.7073 30.0497C57.6241 30.0587 57.5402 30.0632 57.4555 30.0632C57.3077 30.0632 57.1746 30.0486 57.0563 30.0193C56.939 29.9899 56.8351 29.9364 56.7444 29.8586C56.6537 29.7796 56.5856 29.6832 56.5399 29.5693C56.4943 29.4554 56.4694 29.3358 56.4651 29.2106C56.4604 29.0719 56.4801 28.9377 56.5242 28.808C56.5683 28.6772 56.6323 28.5706 56.7164 28.4883C56.8016 28.4048 56.8995 28.3462 57.01 28.3123C57.1206 28.2774 57.2368 28.2599 57.3586 28.2599C57.4737 28.2599 57.5837 28.2746 57.6885 28.3039C57.7933 28.3321 57.8818 28.3789 57.954 28.4443C58.0273 28.5097 58.0841 28.5887 58.1245 28.6811C58.166 28.7725 58.1886 28.8746 58.1925 28.9873C58.1943 29.0403 58.1905 29.095 58.1811 29.1514L56.9405 29.1531C56.9396 29.1948 56.9396 29.2281 56.9405 29.2529C56.9431 29.3285 56.9584 29.3978 56.9865 29.461C57.0146 29.5242 57.0542 29.5777 57.1054 29.6217C57.1565 29.6657 57.2169 29.6984 57.2864 29.7198C57.356 29.7401 57.424 29.7503 57.4906 29.7503C57.5685 29.7503 57.6522 29.7418 57.7419 29.7249C57.8328 29.708 57.9401 29.6792 58.064 29.6386ZM56.9473 28.9552L57.7395 28.9569C57.7377 28.9027 57.7346 28.8627 57.7303 28.8368C57.7261 28.8108 57.7172 28.7815 57.7036 28.7488C57.6912 28.715 57.6744 28.6856 57.6533 28.6608C57.6321 28.6349 57.6076 28.6135 57.58 28.5966C57.5523 28.5796 57.5203 28.5667 57.4839 28.5576C57.4486 28.5486 57.4106 28.5441 57.37 28.5441C57.3226 28.5441 57.2766 28.5514 57.232 28.5661C57.1884 28.5808 57.1485 28.6022 57.1123 28.6304C57.076 28.6586 57.0466 28.6902 57.0241 28.7251C57.0027 28.7601 56.9869 28.7939 56.9768 28.8266C56.9665 28.8582 56.9567 28.9011 56.9473 28.9552Z" fill="#2B4872"/>
<path d="M58.4365 29.9905L58.3866 29.6183C58.4987 29.6634 58.5935 29.695 58.6708 29.7131C58.7481 29.73 58.8189 29.7384 58.8833 29.7384C58.9476 29.7384 59.0015 29.7311 59.045 29.7165C59.0885 29.7007 59.1204 29.6781 59.1409 29.6488C59.1613 29.6183 59.1709 29.5868 59.1698 29.554C59.1693 29.5394 59.1672 29.5259 59.1634 29.5134C59.1607 29.501 59.1552 29.4881 59.1468 29.4745C59.1396 29.461 59.1307 29.4486 59.1201 29.4373C59.1107 29.4249 59.0973 29.4114 59.0798 29.3967C59.0624 29.3809 59.0374 29.3612 59.005 29.3375L58.9112 29.2648C58.8208 29.196 58.7518 29.1418 58.7042 29.1024C58.6566 29.0629 58.6163 29.0229 58.5833 28.9823C58.5503 28.9405 58.5246 28.8971 58.5061 28.852C58.4887 28.8058 58.4792 28.759 58.4776 28.7116C58.4748 28.6293 58.497 28.5509 58.5441 28.4764C58.5924 28.402 58.6639 28.3479 58.7586 28.314C58.8534 28.2791 58.9656 28.2616 59.0954 28.2616C59.2432 28.2616 59.4142 28.2791 59.6083 28.314L59.6424 28.6676C59.5097 28.6146 59.383 28.5881 59.2622 28.5881C59.1968 28.5881 59.1394 28.5949 59.0902 28.6084C59.0421 28.6208 59.0078 28.6405 58.9873 28.6676C58.9668 28.6935 58.957 28.7229 58.9581 28.7556C58.9588 28.7747 58.9628 28.7939 58.9703 28.8131C58.9776 28.8311 58.9901 28.8503 59.0078 28.8706C59.0254 28.8909 59.0452 28.9101 59.0673 28.9281C59.0905 28.9462 59.1379 28.9817 59.2097 29.0347C59.2815 29.0877 59.344 29.1356 59.3974 29.1785C59.4519 29.2214 59.4968 29.2648 59.5322 29.3088C59.5675 29.3516 59.595 29.3978 59.6147 29.4475C59.6345 29.4971 59.6452 29.5473 59.647 29.598C59.6498 29.6826 59.6265 29.761 59.5771 29.8332C59.5276 29.9054 59.4511 29.9617 59.3476 30.0023C59.244 30.0429 59.1273 30.0632 58.9976 30.0632C58.9299 30.0632 58.8473 30.0576 58.7499 30.0463C58.6525 30.0362 58.548 30.0176 58.4365 29.9905Z" fill="#2B4872"/>
<path d="M60.9326 30.0226L60.9434 29.7435L60.9568 28.6439H60.7469C60.7491 28.6101 60.7506 28.5554 60.7515 28.4798C60.7534 28.4031 60.7543 28.3473 60.7542 28.3123H60.9844L60.9821 28.2447C60.978 28.124 60.98 28.0321 60.988 27.9689C60.9959 27.9047 61.0128 27.8522 61.0385 27.8116C61.0653 27.771 61.1031 27.736 61.1517 27.7067C61.2015 27.6763 61.2561 27.656 61.3155 27.6458C61.3749 27.6345 61.4363 27.6289 61.4994 27.6289C61.6281 27.6289 61.7647 27.647 61.9092 27.683C61.9169 27.8094 61.9268 27.9176 61.9389 28.0078C61.8293 27.9695 61.7299 27.9503 61.6407 27.9503C61.6057 27.9503 61.5737 27.9548 61.5447 27.9639C61.5156 27.9718 61.4917 27.983 61.4731 27.9977C61.4555 28.0124 61.4409 28.0315 61.4293 28.0552C61.4177 28.0789 61.4102 28.1071 61.4068 28.1398C61.4034 28.1714 61.4024 28.208 61.4038 28.2498L61.4059 28.3123H61.8375C61.8334 28.3902 61.8304 28.5007 61.8285 28.6439H61.4223C61.4161 29.0928 61.4154 29.5524 61.4201 30.0226C61.3173 30.0204 61.2355 30.0193 61.1745 30.0193C61.1125 30.0193 61.0318 30.0204 60.9326 30.0226Z" fill="#2B4872"/>
<path d="M62.0633 30.0226C62.0737 29.8321 62.0824 29.4898 62.0893 28.9958C62.0973 28.5007 62.098 28.0733 62.0914 27.7135C62.2088 27.7157 62.2924 27.7169 62.342 27.7169C62.4086 27.7169 62.4898 27.7157 62.5856 27.7135L62.566 28.331L62.5536 29.708L62.5576 30.0226C62.4649 30.0204 62.3865 30.0193 62.3222 30.0193C62.3007 30.0193 62.2144 30.0204 62.0633 30.0226Z" fill="#2B4872"/>
<path d="M63.8484 28.2616C63.9782 28.2616 64.103 28.2813 64.2228 28.3208C64.3437 28.3592 64.4467 28.4167 64.5316 28.4934C64.6177 28.5689 64.6835 28.662 64.729 28.7725C64.7745 28.8819 64.7993 28.9975 64.8035 29.1193C64.8078 29.2479 64.79 29.3719 64.7501 29.4915C64.7102 29.611 64.6499 29.7148 64.5694 29.8027C64.4889 29.8896 64.3867 29.955 64.263 29.999C64.1403 30.0418 64.0084 30.0632 63.8674 30.0632C63.7365 30.0632 63.6111 30.0441 63.4913 30.0057C63.3726 29.9663 63.2702 29.9076 63.184 29.8298C63.0979 29.752 63.0309 29.6572 62.9831 29.5456C62.9364 29.4339 62.911 29.3172 62.9069 29.1954C62.9027 29.0714 62.9184 28.9529 62.954 28.8402C62.9897 28.7274 63.0478 28.627 63.1283 28.539C63.2099 28.4511 63.3154 28.3828 63.4446 28.3343C63.5739 28.2858 63.7085 28.2616 63.8484 28.2616ZM63.8602 28.6101C63.7621 28.6101 63.6749 28.6343 63.5987 28.6828C63.5235 28.7302 63.4684 28.8012 63.4333 28.896C63.3992 28.9907 63.3841 29.0939 63.3879 29.2056C63.3913 29.3037 63.4095 29.3911 63.4426 29.4678C63.4768 29.5445 63.5297 29.6065 63.6012 29.6539C63.6739 29.7012 63.7588 29.7249 63.8559 29.7249C63.9552 29.7249 64.0412 29.7007 64.1141 29.6522C64.188 29.6025 64.2419 29.5304 64.276 29.4356C64.3111 29.3398 64.3267 29.2343 64.3227 29.1193C64.3196 29.0257 64.302 28.9405 64.27 28.8638C64.2381 28.7871 64.1863 28.7257 64.1148 28.6794C64.0444 28.6332 63.9595 28.6101 63.8602 28.6101Z" fill="#2B4872"/>
<path d="M65.21 28.6794C65.223 28.5982 65.2307 28.5413 65.2329 28.5086C65.2363 28.4759 65.242 28.4263 65.2499 28.3597C65.4021 28.3236 65.5367 28.2983 65.6535 28.2836C65.7704 28.2689 65.8835 28.2616 65.993 28.2616C66.1171 28.2616 66.2316 28.2763 66.3364 28.3056C66.4412 28.3338 66.524 28.3795 66.5848 28.4426C66.6456 28.5058 66.6781 28.5966 66.6821 28.715C66.6843 28.7793 66.6808 28.9433 66.6718 29.2073C66.6627 29.47 66.6612 29.7418 66.6674 30.0226C66.5815 30.0204 66.5025 30.0193 66.4303 30.0193C66.3614 30.0193 66.2808 30.0204 66.1883 30.0226C66.1984 29.8862 66.2048 29.7283 66.2078 29.549L66.2154 29.1277C66.1735 29.1559 66.1415 29.1757 66.1193 29.187C66.0971 29.1982 66.0721 29.2089 66.0442 29.2191C66.0163 29.2281 65.9671 29.2428 65.8967 29.2631C65.8263 29.2823 65.7699 29.2992 65.7275 29.3138C65.6851 29.3285 65.6468 29.3454 65.6124 29.3646C65.5792 29.3826 65.5511 29.4035 65.5282 29.4272C65.5053 29.4497 65.4886 29.474 65.4782 29.4999C65.4689 29.5247 65.4648 29.5518 65.4658 29.5811C65.4674 29.6285 65.4823 29.6696 65.5106 29.7046C65.54 29.7384 65.5757 29.7621 65.618 29.7757C65.6602 29.7892 65.7095 29.796 65.7659 29.796C65.802 29.796 65.8397 29.7931 65.879 29.7875C65.9195 29.7819 65.9731 29.7678 66.0401 29.7452C66.0186 29.8095 65.9942 29.9054 65.9669 30.0328C65.8873 30.0463 65.8238 30.0548 65.7765 30.0582C65.7292 30.0616 65.6853 30.0632 65.6447 30.0632C65.5025 30.0632 65.385 30.0441 65.2923 30.0057C65.1996 29.9674 65.1298 29.9065 65.083 29.823C65.0373 29.7396 65.013 29.6556 65.0101 29.571C65.0084 29.5225 65.0153 29.4745 65.0306 29.4272C65.0459 29.3798 65.0693 29.3364 65.1006 29.2969C65.132 29.2574 65.1731 29.2197 65.2237 29.1836C65.2744 29.1464 65.3482 29.1108 65.4452 29.077C65.5422 29.042 65.6708 29.0071 65.831 28.9721C65.8736 28.9631 65.9178 28.9524 65.9636 28.94C66.0094 28.9264 66.0456 28.9135 66.0723 28.9011C66.1001 28.8887 66.1238 28.8729 66.1435 28.8537C66.1631 28.8334 66.1771 28.8125 66.1854 28.7911C66.1948 28.7697 66.1991 28.7477 66.1984 28.7251C66.1969 28.6811 66.1809 28.6439 66.1505 28.6135C66.1213 28.583 66.0833 28.5622 66.0367 28.5509C65.9911 28.5385 65.9407 28.5323 65.8854 28.5323C65.68 28.5323 65.4549 28.5813 65.21 28.6794Z" fill="#2B4872"/>
<path d="M68.1364 29.6691C68.125 29.7311 68.1075 29.8461 68.0838 30.0142C67.9898 30.0356 67.9157 30.0492 67.8618 30.0548C67.8078 30.0604 67.7571 30.0632 67.7097 30.0632C67.6262 30.0632 67.5509 30.0554 67.4838 30.0396C67.4178 30.0238 67.3627 29.9961 67.3185 29.9567C67.2742 29.9161 67.2433 29.8693 67.2257 29.8163C67.2092 29.7621 67.1999 29.7063 67.198 29.6488C67.1975 29.6341 67.1974 29.6144 67.1977 29.5896C67.1979 29.5648 67.1997 29.4847 67.203 29.3494L67.218 28.6456H66.9743C66.9776 28.5779 66.979 28.4691 66.9784 28.3191H67.234C67.2385 28.2537 67.2415 28.1426 67.243 27.9859L67.4414 27.9469C67.4829 27.939 67.5629 27.9204 67.6815 27.8911C67.6788 28.0434 67.6792 28.186 67.6826 28.3191H68.1125C68.1098 28.4714 68.1095 28.5802 68.1117 28.6456H67.6801C67.672 29.1046 67.6692 29.3702 67.6717 29.4424C67.6741 29.5123 67.6832 29.5665 67.6992 29.6048C67.7163 29.6431 67.7421 29.6708 67.7765 29.6877C67.8109 29.7046 67.8473 29.7131 67.8857 29.7131C67.9139 29.7131 67.9432 29.7108 67.9735 29.7063C68.0049 29.7018 68.0592 29.6894 68.1364 29.6691Z" fill="#2B4872"/>
</svg>
