<svg width="18" height="12" viewBox="0 0 18 12" fill="none" xmlns="http://www.w3.org/2000/svg">
<path fill-rule="evenodd" clip-rule="evenodd" d="M14.623 1.56575C14.6 1.68166 14.6 1.82106 14.6 2.09985V9.79985C14.6 10.0786 14.6 10.218 14.623 10.334C14.7177 10.81 15.0899 11.1821 15.5659 11.2768C15.6818 11.2999 15.8212 11.2999 16.1 11.2999C16.3788 11.2999 16.5182 11.2999 16.6341 11.2768C17.1101 11.1821 17.4822 10.81 17.5769 10.334C17.6 10.218 17.6 10.0786 17.6 9.79985V2.09985C17.6 1.82106 17.6 1.68166 17.5769 1.56575C17.4822 1.08972 17.1101 0.717599 16.6341 0.622911C16.5182 0.599854 16.3788 0.599854 16.1 0.599854C15.8212 0.599854 15.6818 0.599854 15.5659 0.622911C15.0899 0.717599 14.7177 1.08972 14.623 1.56575ZM9.89999 4.49986C9.89999 4.22106 9.89999 4.08167 9.92305 3.96575C10.0177 3.48972 10.3899 3.1176 10.8659 3.02291C10.9818 2.99986 11.1212 2.99986 11.4 2.99986C11.6788 2.99986 11.8182 2.99986 11.9341 3.02291C12.4101 3.1176 12.7822 3.48972 12.8769 3.96575C12.9 4.08167 12.9 4.22106 12.9 4.49985V9.79986C12.9 10.0787 12.9 10.218 12.8769 10.334C12.7822 10.81 12.4101 11.1821 11.9341 11.2768C11.8182 11.2999 11.6788 11.2999 11.4 11.2999C11.1212 11.2999 10.9818 11.2999 10.8659 11.2768C10.3899 11.1821 10.0177 10.81 9.92305 10.334C9.89999 10.218 9.89999 10.0787 9.89999 9.79986V4.49986ZM5.32305 6.26575C5.29999 6.38167 5.29999 6.52107 5.29999 6.79986V9.79986C5.29999 10.0787 5.29999 10.218 5.32305 10.334C5.41773 10.81 5.78985 11.1821 6.26588 11.2768C6.3818 11.2999 6.52119 11.2999 6.79999 11.2999C7.07878 11.2999 7.21818 11.2999 7.3341 11.2768C7.81012 11.1821 8.18224 10.81 8.27693 10.334C8.29999 10.218 8.29999 10.0787 8.29999 9.79986V6.79986C8.29999 6.52106 8.29999 6.38167 8.27693 6.26575C8.18224 5.78972 7.81012 5.4176 7.3341 5.32292C7.21818 5.29986 7.07878 5.29986 6.79999 5.29986C6.52119 5.29986 6.3818 5.29986 6.26588 5.32292C5.78985 5.4176 5.41773 5.78972 5.32305 6.26575ZM0.523058 8.26575C0.5 8.38167 0.5 8.52107 0.5 8.79986V9.79986C0.5 10.0787 0.5 10.218 0.523058 10.334C0.617746 10.81 0.989863 11.1821 1.46589 11.2768C1.58181 11.2999 1.72121 11.2999 2 11.2999C2.27879 11.2999 2.41819 11.2999 2.53411 11.2768C3.01014 11.1821 3.38225 10.81 3.47694 10.334C3.5 10.218 3.5 10.0787 3.5 9.79986V8.79986C3.5 8.52106 3.5 8.38167 3.47694 8.26575C3.38225 7.78972 3.01014 7.4176 2.53411 7.32292C2.41819 7.29986 2.27879 7.29986 2 7.29986C1.72121 7.29986 1.58181 7.29986 1.46589 7.32292C0.989863 7.4176 0.617746 7.78972 0.523058 8.26575Z" fill="#0C1A30"/>
</svg>
