<svg width="28" height="28" viewBox="0 0 28 28" fill="none" xmlns="http://www.w3.org/2000/svg">
<circle cx="14" cy="14" r="14" fill="#3F6B51"/>
<g clip-path="url(#clip0_1306_7262)">
<path d="M18.1255 17.8892C17.1016 17.8892 16.2573 18.7155 16.2573 19.7574C16.2573 20.7813 17.0836 21.6256 18.1255 21.6256C19.1495 21.6256 19.9938 20.7993 19.9938 19.7574C19.9758 18.7335 19.1495 17.8892 18.1255 17.8892Z" fill="white"/>
<path d="M21.4129 8.97914C21.377 8.97914 21.3231 8.96117 21.2692 8.96117H9.95203L9.77239 7.7576C9.66461 6.96719 8.98199 6.37439 8.17362 6.37439H6.71855C6.32335 6.37439 6 6.69774 6 7.09294C6 7.48814 6.32335 7.81149 6.71855 7.81149H8.17362C8.26343 7.81149 8.33529 7.88335 8.35325 7.97317L9.46701 15.5539C9.61072 16.506 10.4371 17.2245 11.4071 17.2245H18.88C19.8141 17.2245 20.6225 16.5598 20.8201 15.6437L21.9878 9.80547C22.0596 9.42823 21.8081 9.05099 21.4129 8.97914Z" fill="white"/>
<path d="M13.5448 19.6676C13.5089 18.6796 12.6825 17.8892 11.6945 17.8892C10.6526 17.9431 9.86221 18.8053 9.89813 19.8292C9.93406 20.8172 10.7424 21.6077 11.7304 21.6077H11.7664C12.7903 21.5538 13.5987 20.6915 13.5448 19.6676Z" fill="white"/>
</g>
<defs>
<clipPath id="clip0_1306_7262">
<rect width="16" height="16" fill="white" transform="translate(6 6)"/>
</clipPath>
</defs>
</svg>
