<svg width="23" height="23" viewBox="0 0 23 23" fill="none" xmlns="http://www.w3.org/2000/svg">
<g filter="url(#filter0_d_1306_7358)">
<rect x="3" y="3" width="17" height="17" rx="8.5" fill="#FCFCFD"/>
<path d="M12.1864 7.97355L12.1865 7.97353C12.5245 7.80216 12.8882 7.71534 13.2723 7.71534C14.5921 7.71534 15.6597 8.78051 15.6597 10.0801C15.6597 11.0177 15.1586 12.0929 14.0193 13.281C13.1146 14.2245 12.006 15.0274 11.1875 15.5599C10.369 15.0274 9.26036 14.2245 8.35565 13.281C7.21641 12.0929 6.71534 11.0177 6.71534 10.0801C6.71534 8.78051 7.78291 7.71534 9.10272 7.71534C9.48674 7.71534 9.85052 7.80216 10.1886 7.97353L10.1886 7.97355C10.418 8.08983 10.6298 8.24498 10.8117 8.4294L11.1875 8.8103L11.5633 8.4294C11.7452 8.24498 11.957 8.08983 12.1864 7.97355Z" fill="white" stroke="#3F6B51" stroke-width="1.05567"/>
</g>
<defs>
<filter id="filter0_d_1306_7358" x="0.875" y="0.875" width="21.25" height="21.25" filterUnits="userSpaceOnUse" color-interpolation-filters="sRGB">
<feFlood flood-opacity="0" result="BackgroundImageFix"/>
<feColorMatrix in="SourceAlpha" type="matrix" values="0 0 0 0 0 0 0 0 0 0 0 0 0 0 0 0 0 0 127 0" result="hardAlpha"/>
<feOffset/>
<feGaussianBlur stdDeviation="1.0625"/>
<feComposite in2="hardAlpha" operator="out"/>
<feColorMatrix type="matrix" values="0 0 0 0 0.14902 0 0 0 0 0.196078 0 0 0 0 0.219608 0 0 0 0.12 0"/>
<feBlend mode="normal" in2="BackgroundImageFix" result="effect1_dropShadow_1306_7358"/>
<feBlend mode="normal" in="SourceGraphic" in2="effect1_dropShadow_1306_7358" result="shape"/>
</filter>
</defs>
</svg>
