<svg width="32" height="32" viewBox="0 0 32 32" fill="none" xmlns="http://www.w3.org/2000/svg">
<g clip-path="url(#clip0_1232_8917)">
<path d="M22.6712 1.4873C21.1792 1.4873 19.7532 1.82934 18.4328 2.50398C17.5341 2.96313 16.7085 3.57318 16 4.29697C15.2915 3.57318 14.4659 2.96313 13.5671 2.50398C12.2468 1.82934 10.8207 1.4873 9.32869 1.4873C4.18487 1.4873 0 5.67218 0 10.8161C0 14.4594 1.92416 18.3289 5.71896 22.3172C8.88742 25.6472 12.7666 28.4231 15.4629 30.1654L16 30.5125L16.5371 30.1654C19.2334 28.4232 23.1126 25.6472 26.281 22.3172C30.0758 18.3289 32 14.4594 32 10.8161C32 5.67218 27.8151 1.4873 22.6712 1.4873Z" fill="white" fill-opacity="0.55"/>
</g>
<defs>
<clipPath id="clip0_1232_8917">
<rect width="32" height="32" fill="white"/>
</clipPath>
</defs>
</svg>
