<svg width="50" height="36" viewBox="0 0 50 36" fill="none" xmlns="http://www.w3.org/2000/svg">
<path d="M9.46508 18.54C9.62508 18.7267 9.73841 18.8667 9.80508 18.96C10.2984 19.5467 10.6517 20.0533 10.8651 20.48C11.0917 20.8933 11.2051 21.4267 11.2051 22.08C11.2051 22.72 11.0717 23.3667 10.8051 24.02C10.5517 24.66 10.1784 25.2133 9.68508 25.68C9.20508 26.1333 8.63175 26.4267 7.96508 26.56C7.15175 26.7333 6.45841 26.82 5.88508 26.82C5.49841 26.82 5.11841 26.8 4.74508 26.76L4.14508 26.74V26.9C4.14508 26.9533 4.13175 27 4.10508 27.04C4.07841 27.0667 4.05174 27.1133 4.02508 27.18V31.36C4.02508 31.36 3.98508 31.4 3.90508 31.48C3.62508 31.48 3.31174 31.4333 2.96508 31.34C2.63174 31.26 2.37174 31.1467 2.18508 31C2.18508 30.2267 2.13841 29.2933 2.04508 28.2C1.96508 26.9733 1.92508 26.0533 1.92508 25.44C1.92508 25.1733 1.95174 24.8133 2.00508 24.36C2.04508 24.0933 2.06508 23.8667 2.06508 23.68C2.06508 23.4667 2.03841 23.2933 1.98508 23.16C1.94508 23.0133 1.92508 22.9133 1.92508 22.86C1.92508 22.8067 1.94508 22.7333 1.98508 22.64C2.03841 22.5467 2.06508 22.3867 2.06508 22.16C2.06508 22.04 2.03841 21.9133 1.98508 21.78C1.93174 21.6467 1.90508 21.56 1.90508 21.52C1.90508 21.3867 1.93174 21.2 1.98508 20.96C2.03841 20.72 2.06508 20.54 2.06508 20.42C2.06508 20.2467 2.03174 20.1333 1.96508 20.08C1.89841 20.0133 1.80508 19.9733 1.68508 19.96C1.57841 19.9333 1.52508 19.8933 1.52508 19.84C1.52508 19.7333 1.56508 19.64 1.64508 19.56C1.72508 19.4667 1.81841 19.4133 1.92508 19.4V18.18C1.92508 18.1267 1.99174 18.0533 2.12508 17.96C2.27174 17.8533 2.36508 17.8 2.40508 17.8H5.14508L5.38508 17.68H7.58508C7.74508 17.7333 7.95841 17.84 8.22508 18C8.63841 18.2533 9.05175 18.4333 9.46508 18.54ZM6.10508 18.18C5.79841 18.18 5.53841 18.2467 5.32508 18.38C5.12508 18.5133 4.89841 18.7333 4.64508 19.04C4.72508 19.04 4.88508 18.9933 5.12508 18.9C5.36508 18.8067 5.49174 18.7667 5.50508 18.78C5.45174 18.8467 5.37175 18.92 5.26508 19C5.17175 19.0667 5.08508 19.1133 5.00508 19.14C5.09841 19.1667 5.19174 19.22 5.28508 19.3C5.37841 19.38 5.49175 19.42 5.62508 19.42L5.86508 19.4L5.62508 19.26C5.81175 19.1667 6.07841 19.12 6.42508 19.12L6.88508 19.14L7.08508 18.92C7.07175 18.9333 7.06508 18.9533 7.06508 18.98C7.06508 19.0333 7.11841 19.0733 7.22508 19.1C7.33175 19.1267 7.42508 19.1533 7.50508 19.18C7.58508 19.1933 7.64508 19.2 7.68508 19.2C8.07175 19.2533 8.29175 19.32 8.34508 19.4L8.22508 19.52C8.55841 19.7867 8.75841 19.9533 8.82508 20.02C8.87841 20.06 8.92508 20.1267 8.96508 20.22C9.01841 20.3 9.06508 20.3667 9.10508 20.42C9.15841 20.46 9.23841 20.4867 9.34508 20.5L9.06508 20.74C9.10508 20.7667 9.19175 20.8133 9.32508 20.88C9.47175 20.9467 9.57174 21.0333 9.62508 21.14C9.67841 21.2467 9.70508 21.3867 9.70508 21.56C9.70508 21.6667 9.69841 21.7267 9.68508 21.74C9.91175 21.5933 10.0917 21.4667 10.2251 21.36C10.3717 21.24 10.4451 21.1 10.4451 20.94C10.4451 20.6467 10.3851 20.5 10.2651 20.5C10.2251 20.5 10.1584 20.5267 10.0651 20.58C9.97175 20.6333 9.89841 20.6867 9.84508 20.74L9.82508 20.66C9.82508 20.6333 9.86508 20.5533 9.94508 20.42C10.0384 20.2733 10.0851 20.18 10.0851 20.14C10.0851 20.1133 10.0251 20.0133 9.90508 19.84C9.78508 19.6667 9.64508 19.5067 9.48508 19.36C9.32508 19.2133 9.15841 19.14 8.98508 19.14L9.20508 18.9C8.68508 18.62 8.19841 18.4333 7.74508 18.34C7.30508 18.2333 6.75841 18.18 6.10508 18.18ZM2.76508 19.76C2.99174 19.76 3.31175 19.6267 3.72508 19.36C4.15174 19.08 4.45841 18.8467 4.64508 18.66C4.40508 18.66 4.15175 18.7267 3.88508 18.86C3.61841 18.9933 3.29174 19.1733 2.90508 19.4H2.76508C2.89841 19.24 3.05841 19.1 3.24508 18.98C3.43174 18.8467 3.61174 18.7267 3.78508 18.62C3.95841 18.5133 4.07841 18.44 4.14508 18.4V18.24C3.65175 18.24 3.25175 18.26 2.94508 18.3C2.63841 18.34 2.48508 18.46 2.48508 18.66H2.86508C2.86508 18.6867 2.87174 18.7067 2.88508 18.72C2.89841 18.7333 2.90508 18.7533 2.90508 18.78C2.90508 18.7933 2.83841 18.8667 2.70508 19C2.58508 19.12 2.48508 19.2067 2.40508 19.26C2.43174 19.46 2.46508 19.5933 2.50508 19.66C2.55841 19.7267 2.64508 19.76 2.76508 19.76ZM7.08508 18.92L7.10508 18.9L7.08508 18.92ZM6.10508 24.7V24.84C6.27841 24.72 6.53175 24.6467 6.86508 24.62C7.21175 24.5933 7.41841 24.5733 7.48508 24.56C7.92508 24.5333 8.25841 24.3467 8.48508 24C8.72508 23.6533 8.91841 23.1867 9.06508 22.6L9.20508 22C9.20508 21.76 9.07175 21.4 8.80508 20.92C8.53841 20.4267 8.30508 20.1267 8.10508 20.02C7.91841 19.9267 7.51175 19.88 6.88508 19.88L5.86508 19.9C5.53175 19.9133 5.17841 19.9333 4.80508 19.96C4.43174 19.9733 4.17174 19.9933 4.02508 20.02L3.90508 20.14V20.54V21.14L3.96508 22.26C4.00508 23.14 4.04508 23.7933 4.08508 24.22C4.12508 24.6333 4.18508 24.84 4.26508 24.84H6.02508L6.10508 24.7ZM2.54508 20.14C2.54508 20.18 2.55841 20.2267 2.58508 20.28C2.61174 20.32 2.64508 20.3533 2.68508 20.38C2.92508 20.3 3.04508 20.1667 3.04508 19.98C2.92508 19.98 2.81174 19.9933 2.70508 20.02C2.59841 20.0467 2.54508 20.0867 2.54508 20.14ZM3.40508 20.24C3.23174 20.24 3.03174 20.3467 2.80508 20.56C2.57841 20.76 2.46508 20.9533 2.46508 21.14H3.28508C3.28508 21.1 3.29841 20.9867 3.32508 20.8C3.36508 20.6133 3.39174 20.4267 3.40508 20.24ZM2.54508 21.86C2.73174 21.7133 2.85174 21.5467 2.90508 21.36C2.86508 21.3467 2.81841 21.34 2.76508 21.34C2.67174 21.34 2.60508 21.38 2.56508 21.46C2.52508 21.5267 2.50508 21.6 2.50508 21.68L2.54508 21.86ZM3.42508 21.96C3.42508 21.6933 3.37841 21.4933 3.28508 21.36C3.12508 21.48 2.97841 21.6667 2.84508 21.92C2.72508 22.16 2.66508 22.38 2.66508 22.58C2.66508 22.78 2.73174 22.88 2.86508 22.88C2.71841 22.92 2.61841 23.0067 2.56508 23.14C2.52508 23.26 2.50508 23.42 2.50508 23.62C2.63841 23.62 2.74508 23.58 2.82508 23.5C2.90508 23.4067 2.99174 23.2667 3.08508 23.08C3.17841 22.84 3.28508 22.68 3.40508 22.6L3.42508 21.96ZM9.76508 22.32C10.0984 22.32 10.3584 22.2933 10.5451 22.24C10.7317 22.1867 10.8251 22.0533 10.8251 21.84C10.8251 21.7067 10.7984 21.6133 10.7451 21.56C10.7051 21.5067 10.6317 21.48 10.5251 21.48C10.3117 21.48 10.1317 21.5733 9.98508 21.76C9.83841 21.9333 9.76508 22.12 9.76508 22.32ZM9.98508 22.46C9.87841 22.46 9.77175 22.4867 9.66508 22.54C9.57175 22.58 9.52508 22.6467 9.52508 22.74C9.85841 22.74 10.0851 22.6533 10.2051 22.48L9.98508 22.46ZM10.3251 23.46C10.4184 23.46 10.5051 23.3467 10.5851 23.12C10.6651 22.88 10.7051 22.7067 10.7051 22.6H10.5451C10.3851 22.6667 10.1651 22.7733 9.88508 22.92C9.60508 23.0667 9.46508 23.1667 9.46508 23.22V23.46H10.3251ZM3.04508 22.86C3.00508 22.8733 2.95174 22.88 2.88508 22.88H2.86508C2.90508 22.8667 2.96508 22.86 3.04508 22.86ZM3.56508 23.78C3.56508 23.62 3.55175 23.4933 3.52508 23.4C3.51174 23.3067 3.47174 23.2 3.40508 23.08C3.19174 23.2533 2.99174 23.48 2.80508 23.76C2.63174 24.0267 2.54508 24.2733 2.54508 24.5C2.89174 24.5 3.14508 24.46 3.30508 24.38C3.47841 24.2867 3.56508 24.0867 3.56508 23.78ZM8.84508 25.46C8.96508 25.46 9.14508 25.36 9.38508 25.16C9.63841 24.9467 9.85841 24.7 10.0451 24.42C10.2451 24.14 10.3451 23.8867 10.3451 23.66C10.0384 23.66 9.75841 23.74 9.50508 23.9C9.25175 24.06 9.12508 24.28 9.12508 24.56H9.26508C9.26508 24.68 8.98508 24.8133 8.42508 24.96C7.87841 25.0933 7.26508 25.2133 6.58508 25.32C5.90508 25.4267 5.44508 25.48 5.20508 25.48C5.20508 25.5333 5.21841 25.6067 5.24508 25.7C5.27174 25.78 5.31841 25.82 5.38508 25.82H6.24508L6.02508 25.56H6.10508C6.17175 25.5733 6.29175 25.5933 6.46508 25.62C6.63841 25.6333 6.81174 25.66 6.98508 25.7C6.94508 25.7133 6.92508 25.7333 6.92508 25.76C6.92508 25.84 7.06508 25.8933 7.34508 25.92C7.62508 25.9467 7.75841 25.96 7.74508 25.96C8.18508 25.96 8.40508 25.8733 8.40508 25.7H7.72508C7.76508 25.66 7.83841 25.6133 7.94508 25.56C8.05175 25.5067 8.14508 25.4667 8.22508 25.44L8.84508 25.46ZM3.16508 24.68C2.89841 24.68 2.70508 24.7267 2.58508 24.82C2.46508 24.9 2.40508 25.08 2.40508 25.36C2.59174 25.36 2.75841 25.3067 2.90508 25.2C3.06508 25.08 3.23174 24.9133 3.40508 24.7L3.16508 24.68ZM2.76508 25.7C2.95174 25.7 3.28508 25.58 3.76508 25.34C3.73841 25.2867 3.70508 25.22 3.66508 25.14C3.63841 25.06 3.62508 25 3.62508 24.96H3.54508L2.76508 25.7ZM3.90508 26.04C4.09175 26.12 4.31841 26.1667 4.58508 26.18C4.86508 26.18 5.05174 26.18 5.14508 26.18L4.76508 25.82L5.00508 25.7C5.00508 25.6067 4.92508 25.56 4.76508 25.56C4.53841 25.5867 4.33841 25.6333 4.16508 25.7C3.99174 25.7533 3.90508 25.8667 3.90508 26.04ZM3.64508 25.7C3.53841 25.7267 3.37841 25.7667 3.16508 25.82C2.95174 25.86 2.79174 25.9267 2.68508 26.02C2.59174 26.1133 2.54508 26.2533 2.54508 26.44L2.52508 26.58C2.52508 26.7267 2.57841 26.8 2.68508 26.8L3.64508 25.82V25.7ZM6.10508 26.18C6.07841 26.1267 5.99174 26.0933 5.84508 26.08C5.69841 26.0533 5.58508 26.04 5.50508 26.04C5.57175 26.1067 5.63175 26.1533 5.68508 26.18C5.73841 26.1933 5.82508 26.2 5.94508 26.2L6.10508 26.18ZM3.40508 26.44C3.31175 26.44 3.18508 26.58 3.02508 26.86C2.86508 27.1267 2.77841 27.2667 2.76508 27.28C2.88508 27.28 3.01841 27.2467 3.16508 27.18C3.32508 27.1133 3.40508 27.0667 3.40508 27.04V26.44ZM3.10508 27.54C2.95841 27.54 2.84508 27.5533 2.76508 27.58C2.68508 27.6067 2.64508 27.68 2.64508 27.8C2.64508 27.84 2.65841 27.8733 2.68508 27.9C2.91174 27.7933 3.07174 27.6733 3.16508 27.54H3.10508ZM2.68508 28.42C2.99174 28.42 3.19841 28.3733 3.30508 28.28C3.41174 28.1733 3.46508 27.9667 3.46508 27.66H3.28508L2.68508 28.3V28.42ZM3.40508 28.4C3.33841 28.4267 3.22508 28.4667 3.06508 28.52C2.91841 28.56 2.81174 28.62 2.74508 28.7C2.69174 28.7667 2.66508 28.8733 2.66508 29.02L2.68508 29.28C2.71174 29.24 2.82508 29.1267 3.02508 28.94C3.23841 28.7533 3.36508 28.5733 3.40508 28.4ZM3.04508 29.76C3.25841 29.68 3.39841 29.5733 3.46508 29.44C3.53174 29.2933 3.56508 29.0867 3.56508 28.82C3.39174 28.82 3.24508 28.9 3.12508 29.06C3.01841 29.2067 2.89841 29.4333 2.76508 29.74C2.69841 29.9 2.62508 30.0533 2.54508 30.2C2.46508 30.3467 2.37841 30.4533 2.28508 30.52C2.43174 30.6667 2.51841 30.7467 2.54508 30.76C2.69174 30.76 2.87841 30.64 3.10508 30.4C3.33174 30.16 3.44508 29.9467 3.44508 29.76H3.04508ZM3.16508 30.76C3.28508 30.76 3.35174 30.7267 3.36508 30.66C3.39174 30.5933 3.40508 30.52 3.40508 30.44C3.40508 30.3467 3.40508 30.2867 3.40508 30.26C3.31175 30.3 3.25175 30.3867 3.22508 30.52C3.19841 30.6533 3.17841 30.7333 3.16508 30.76ZM16.0913 29.8C16.358 29.8933 16.4913 29.98 16.4913 30.06C16.4913 30.14 16.3847 30.44 16.1713 30.96C16.0513 31.2 15.9913 31.34 15.9913 31.38L15.7313 31.48V31.32C15.5713 31.32 15.4247 31.3267 15.2913 31.34C15.158 31.3533 15.0313 31.36 14.9113 31.36C14.7247 31.36 14.578 31.32 14.4713 31.24C14.378 31.1733 14.3313 31.0267 14.3313 30.8C13.9847 30.8 13.7247 30.6733 13.5513 30.42C13.378 30.1667 13.198 29.7867 13.0113 29.28C12.918 28.08 12.8513 26.8533 12.8113 25.6C12.7847 24.3333 12.7713 22.8467 12.7713 21.14V19.86C12.7713 18.7 12.818 17.7267 12.9113 16.94C13.138 16.82 13.4247 16.74 13.7713 16.7C13.8247 16.6867 13.9447 16.6667 14.1313 16.64C14.318 16.6 14.4847 16.54 14.6313 16.46L14.6913 16.44C14.8113 16.44 14.8713 16.5133 14.8713 16.66C14.8713 17.7267 14.8313 19.34 14.7513 21.5C14.698 22.5533 14.658 23.6267 14.6313 24.72C14.6313 25.0133 14.6047 25.4133 14.5513 25.92C14.538 26.0267 14.5247 26.1667 14.5113 26.34C14.498 26.5133 14.4913 26.72 14.4913 26.96C14.4913 27.8267 14.598 28.52 14.8113 29.04C15.0247 29.5467 15.4513 29.8 16.0913 29.8ZM14.1513 17.34C13.8047 17.34 13.578 17.4267 13.4713 17.6C13.3647 17.76 13.3113 18.0333 13.3113 18.42H13.5913C13.5913 18.4467 13.598 18.4667 13.6113 18.48C13.6247 18.4933 13.6313 18.5067 13.6313 18.52C13.6313 18.5467 13.598 18.58 13.5313 18.62C13.478 18.6467 13.4313 18.66 13.3913 18.66V19.4C13.4313 19.3467 13.5113 19.24 13.6313 19.08C13.7647 18.9067 13.8513 18.8133 13.8913 18.8C13.878 18.84 13.8513 18.9267 13.8113 19.06C13.7713 19.18 13.7113 19.2933 13.6313 19.4C13.6447 19.4 13.6713 19.4067 13.7113 19.42C13.7513 19.42 13.798 19.42 13.8513 19.42C14.0513 19.42 14.1513 19.38 14.1513 19.3V17.34ZM13.3913 23.5C13.4313 23.5667 13.558 23.6 13.7713 23.6C13.7313 23.6533 13.678 23.7 13.6113 23.74C13.5447 23.7667 13.4913 23.8 13.4513 23.84C13.4113 23.88 13.3913 23.94 13.3913 24.02C13.3913 24.1267 13.418 24.2333 13.4713 24.34C13.5247 24.4467 13.5513 24.5733 13.5513 24.72H14.0113V24.08H13.7713C13.9313 23.8667 14.0113 23.5667 14.0113 23.18C14.0113 23.1 13.9913 22.9933 13.9513 22.86C13.9113 22.7267 13.8913 22.62 13.8913 22.54L14.0113 22.04C14.1047 21.7333 14.1513 21.4267 14.1513 21.12C14.138 21.08 14.118 21.04 14.0913 21C14.0647 20.9467 14.038 20.9067 14.0113 20.88C14.0113 21.0667 13.9313 21.16 13.7713 21.16L13.6313 21.12C13.7247 21.08 13.7847 21.02 13.8113 20.94C13.838 20.86 13.8513 20.76 13.8513 20.64H14.1513V19.9C14.0713 19.9933 13.958 20.1067 13.8113 20.24C13.678 20.36 13.598 20.42 13.5713 20.42L13.5113 20.4C13.7647 20.12 13.9313 19.8733 14.0113 19.66C13.8647 19.66 13.7047 19.68 13.5313 19.72C13.358 19.7467 13.2713 19.82 13.2713 19.94C13.2713 20.2467 13.3113 20.46 13.3913 20.58C13.4713 20.7 13.5113 20.7667 13.5113 20.78C13.5113 20.8067 13.4713 20.9133 13.3913 21.1C13.3113 21.2733 13.2713 21.4067 13.2713 21.5C13.298 21.4867 13.3313 21.4667 13.3713 21.44C13.4247 21.4 13.4713 21.38 13.5113 21.38C13.538 21.38 13.5647 21.4 13.5913 21.44C13.618 21.4667 13.6313 21.4867 13.6313 21.5C13.5913 21.54 13.5447 21.6067 13.4913 21.7C13.438 21.7933 13.4047 21.8667 13.3913 21.92C13.3913 22 13.4247 22.0533 13.4913 22.08C13.5713 22.0933 13.618 22.1067 13.6313 22.12C13.4847 22.16 13.3913 22.2667 13.3513 22.44C13.3247 22.6133 13.3113 22.8067 13.3113 23.02C13.418 23.02 13.5047 22.9933 13.5713 22.94C13.638 22.8733 13.6847 22.84 13.7113 22.84L13.7713 22.86C13.7313 22.9667 13.6647 23.0867 13.5713 23.22C13.4913 23.3533 13.4313 23.4467 13.3913 23.5ZM14.0313 24.94C13.8447 24.94 13.7113 24.9933 13.6313 25.1C13.5513 25.2067 13.5113 25.3667 13.5113 25.58C13.538 25.5533 13.6047 25.5067 13.7113 25.44C13.8313 25.3733 13.9113 25.3 13.9513 25.22C14.0047 25.14 14.0313 25.0467 14.0313 24.94ZM13.8913 29.78C13.958 29.78 14.038 29.64 14.1313 29.36C14.2247 29.08 14.2713 28.8867 14.2713 28.78C14.2713 28.6467 14.2513 28.56 14.2113 28.52C14.1847 28.48 14.118 28.46 14.0113 28.46V26.44L13.8913 26.32C13.998 26.32 14.0513 26.06 14.0513 25.54C13.918 25.54 13.7913 25.6133 13.6713 25.76C13.5513 25.8933 13.4913 26.0333 13.4913 26.18C13.4913 26.1933 13.5113 26.22 13.5513 26.26C13.6047 26.2867 13.6313 26.3067 13.6313 26.32L13.5113 26.44V27.3C13.6047 27.3267 13.6513 27.4133 13.6513 27.56C13.6513 27.6533 13.6313 27.8 13.5913 28C13.538 28.1333 13.5113 28.28 13.5113 28.44C13.5113 28.5867 13.578 28.7267 13.7113 28.86C13.8447 28.9933 13.9113 29.1067 13.9113 29.2C13.9113 29.24 13.8713 29.3133 13.7913 29.42C13.7113 29.5133 13.658 29.5933 13.6313 29.66C13.6447 29.66 13.6847 29.68 13.7513 29.72C13.818 29.76 13.8647 29.78 13.8913 29.78ZM15.4913 30.64C15.5047 30.6267 15.5313 30.6 15.5713 30.56C15.6247 30.52 15.6513 30.4733 15.6513 30.42C15.6513 30.3933 15.5447 30.3267 15.3313 30.22C15.118 30.1133 14.9647 30.04 14.8713 30C14.8313 30 14.7647 30.0267 14.6713 30.08C14.578 30.12 14.478 30.14 14.3713 30.14C14.4113 30.1267 14.458 30.0867 14.5113 30.02C14.578 29.9533 14.618 29.9133 14.6313 29.9C14.6313 29.8067 14.6047 29.7133 14.5513 29.62C14.5113 29.5267 14.4513 29.46 14.3713 29.42C14.3313 29.42 14.2647 29.5 14.1713 29.66C14.0913 29.8067 14.038 29.92 14.0113 30C14.0113 30.28 14.178 30.5 14.5113 30.66C14.8447 30.82 15.1513 30.9 15.4313 30.9C15.5113 30.9 15.578 30.8467 15.6313 30.74L15.4913 30.64ZM25.1516 29.14C25.1516 29.22 25.1916 29.28 25.2716 29.32C25.3516 29.36 25.4916 29.4067 25.6916 29.46C25.9716 29.54 26.1783 29.6267 26.3116 29.72C26.445 29.8 26.5116 29.9267 26.5116 30.1C26.5116 30.6733 26.345 31.0533 26.0116 31.24C25.5983 31.1067 25.3116 31.0267 25.1516 31C24.9916 30.9733 24.6916 30.8 24.2516 30.48C24.025 30.32 23.8983 30.24 23.8716 30.24C23.765 30.24 23.6116 30.3067 23.4116 30.44C23.225 30.5733 23.105 30.64 23.0516 30.64C22.7316 30.7867 22.445 30.9 22.1916 30.98C21.9383 31.06 21.6716 31.1 21.3916 31.1C20.8716 31.1 20.345 30.9933 19.8116 30.78C19.2783 30.5667 18.8316 30.2467 18.4716 29.82C18.1116 29.38 17.9316 28.84 17.9316 28.2C17.9316 28.0267 17.9783 27.7533 18.0716 27.38C18.1783 26.9933 18.2716 26.7133 18.3516 26.54C18.605 26.18 18.9716 25.9133 19.4516 25.74C19.9316 25.5667 20.5583 25.4133 21.3316 25.28C21.945 25.16 22.385 25.0533 22.6516 24.96C22.9183 24.8533 23.0516 24.7 23.0516 24.5C23.0516 24.1 22.9183 23.7667 22.6516 23.5C22.3983 23.22 22.0383 23.08 21.5716 23.08C21.385 23.08 21.205 23.1067 21.0316 23.16C20.8583 23.2133 20.6316 23.3 20.3516 23.42C19.9516 23.6067 19.6583 23.7 19.4716 23.7C19.125 23.7 18.9516 23.3467 18.9516 22.64C18.9516 22.16 19.145 21.8467 19.5316 21.7C19.9183 21.54 20.4183 21.46 21.0316 21.46C21.1516 21.46 21.305 21.4733 21.4916 21.5C21.6916 21.5267 21.8383 21.5467 21.9316 21.56C22.2916 21.6267 22.585 21.66 22.8116 21.66L23.2716 21.64C23.605 21.64 23.7716 21.7667 23.7716 22.02C23.9316 22.02 24.0516 22.0467 24.1316 22.1C24.2116 22.14 24.2516 22.2333 24.2516 22.38C24.625 22.38 24.8916 22.6867 25.0516 23.3C25.2116 23.9133 25.2916 24.4867 25.2916 25.02C25.2916 25.38 25.2383 25.8933 25.1316 26.56C25.025 27.2267 24.9716 27.72 24.9716 28.04C24.9716 28.12 24.985 28.24 25.0116 28.4C25.0383 28.5467 25.0516 28.66 25.0516 28.74L25.0316 28.92L25.1516 29.14ZM21.4516 22.34C21.6116 22.34 21.785 22.3667 21.9716 22.42C22.145 22.4867 22.3383 22.52 22.5516 22.52C22.5516 22.2133 22.4783 22.06 22.3316 22.06C22.2783 22.06 22.2183 22.0733 22.1516 22.1C22.0983 22.1133 22.0383 22.12 21.9716 22.12L21.4516 22.1C21.0116 22.1 20.6716 22.12 20.4316 22.16C20.1916 22.1867 19.8716 22.2667 19.4716 22.4C19.4716 22.4533 19.485 22.5333 19.5116 22.64C19.5516 22.7467 19.585 22.8133 19.6116 22.84C19.7583 22.84 19.9916 22.7933 20.3116 22.7C20.645 22.5933 20.8583 22.4733 20.9516 22.34L21.1516 22.5C21.165 22.5 21.205 22.4733 21.2716 22.42C21.3383 22.3667 21.3983 22.34 21.4516 22.34ZM22.8716 22.86C23.005 22.86 23.1716 22.8333 23.3716 22.78C23.5716 22.7133 23.6716 22.6333 23.6716 22.54C23.6716 22.4067 23.4916 22.34 23.1316 22.34C23.0116 22.34 22.905 22.3933 22.8116 22.5C22.7183 22.5933 22.6716 22.7067 22.6716 22.84L22.8716 22.86ZM23.4316 23.38C23.4316 23.42 23.4583 23.4667 23.5116 23.52C23.565 23.5733 23.625 23.6 23.6916 23.6C23.8783 23.6 24.005 23.5733 24.0716 23.52C24.1516 23.4667 24.1916 23.3733 24.1916 23.24C24.1916 23.1467 24.1516 23.04 24.0716 22.92C24.005 22.8 23.925 22.74 23.8316 22.74L23.4316 23.38ZM24.4116 23.7C24.3716 23.7133 24.2783 23.74 24.1316 23.78C23.985 23.82 23.865 23.8867 23.7716 23.98C23.6916 24.06 23.6516 24.16 23.6516 24.28C23.905 24.28 24.1583 24.0867 24.4116 23.7ZM24.6516 24.42C24.6516 24.3667 24.625 24.3067 24.5716 24.24C24.5316 24.1733 24.4983 24.14 24.4716 24.14C24.3916 24.14 24.2716 24.1933 24.1116 24.3C23.965 24.3933 23.8583 24.4867 23.7916 24.58L24.5316 24.7C24.5316 24.6733 24.5516 24.6267 24.5916 24.56C24.6316 24.4933 24.6516 24.4467 24.6516 24.42ZM24.0116 24.94L23.4916 24.82L23.3116 25.04L24.0116 24.94ZM23.4316 25.44C23.4583 25.52 23.505 25.5733 23.5716 25.6C23.6516 25.6267 23.7716 25.66 23.9316 25.7C24.0916 25.7267 24.205 25.76 24.2716 25.8C24.1916 25.9333 24.0916 26.0267 23.9716 26.08C23.905 26.12 23.8516 26.1667 23.8116 26.22C23.785 26.2733 23.7716 26.38 23.7716 26.54C23.7716 26.7267 23.805 26.92 23.8716 27.12C23.925 27.36 23.9516 27.5533 23.9516 27.7C23.9516 27.8333 23.9316 27.9933 23.8916 28.18C24.185 28.1133 24.3983 27.82 24.5316 27.3C24.665 26.78 24.7316 26.2267 24.7316 25.64C24.7316 25.2933 24.7116 25.0533 24.6716 24.92C24.5383 24.92 24.3383 24.98 24.0716 25.1C23.8183 25.22 23.605 25.3333 23.4316 25.44ZM22.8916 25.58C22.8116 25.58 22.725 25.6 22.6316 25.64C22.5383 25.68 22.4783 25.7333 22.4516 25.8C22.5183 25.8267 22.6116 25.8533 22.7316 25.88C22.865 25.9067 22.9716 25.9267 23.0516 25.94C23.0916 25.9267 23.1516 25.9067 23.2316 25.88C23.3116 25.8533 23.3783 25.8267 23.4316 25.8C23.365 25.76 23.2716 25.72 23.1516 25.68C23.0316 25.6267 22.945 25.5933 22.8916 25.58ZM21.8916 25.62L21.3316 25.9L22.0716 25.8L21.8916 25.62ZM19.4716 27.28C19.4983 27.28 19.5516 27.2333 19.6316 27.14C19.7116 27.0333 19.7516 26.96 19.7516 26.92H19.2116C19.265 26.84 19.365 26.7667 19.5116 26.7C19.6716 26.6333 19.8383 26.5733 20.0116 26.52C20.2916 26.4267 20.5183 26.34 20.6916 26.26C20.865 26.1667 20.9916 26.06 21.0716 25.94H20.9916C20.7383 25.94 20.525 25.96 20.3516 26C20.1916 26.04 20.105 26.14 20.0916 26.3C19.985 26.34 19.8383 26.3933 19.6516 26.46C19.4783 26.5133 19.3316 26.5867 19.2116 26.68C19.105 26.76 19.025 26.8733 18.9716 27.02C18.9983 27.06 19.0783 27.1133 19.2116 27.18C19.345 27.2467 19.4316 27.28 19.4716 27.28ZM20.9516 29.52C21.165 29.52 21.465 29.4667 21.8516 29.36C22.2383 29.2533 22.5783 29.1133 22.8716 28.94C23.165 28.7533 23.3116 28.5467 23.3116 28.32V28.24C23.3116 27.6267 23.245 27.1467 23.1116 26.8C22.9916 26.4533 22.6916 26.28 22.2116 26.28C22.145 26.28 22.045 26.3133 21.9116 26.38C21.7783 26.4333 21.685 26.46 21.6316 26.46C21.485 26.46 21.2916 26.54 21.0516 26.7C20.825 26.86 20.6716 26.9667 20.5916 27.02C20.5116 27.0733 20.4383 27.16 20.3716 27.28C20.3183 27.3867 20.265 27.4933 20.2116 27.6C20.1316 27.7867 20.0516 27.9333 19.9716 28.04C19.905 28.1333 19.8116 28.18 19.6916 28.18C19.6916 28.5933 19.7983 28.92 20.0116 29.16C20.225 29.4 20.5383 29.52 20.9516 29.52ZM18.7316 27.28C18.6916 27.28 18.6583 27.3333 18.6316 27.44C18.605 27.5467 18.5916 27.6267 18.5916 27.68C18.685 27.68 18.7783 27.6533 18.8716 27.6C18.965 27.5467 19.045 27.4867 19.1116 27.42C19.0583 27.3933 18.9916 27.3667 18.9116 27.34C18.845 27.3133 18.785 27.2933 18.7316 27.28ZM19.3516 27.9C19.3916 27.86 19.4116 27.7933 19.4116 27.7C19.4116 27.6867 19.3783 27.68 19.3116 27.68C19.1916 27.68 19.0516 27.7 18.8916 27.74C18.745 27.78 18.6516 27.8333 18.6116 27.9H19.3516ZM24.4516 28.1C24.345 28.1 24.2383 28.1533 24.1316 28.26C24.0383 28.3533 23.9916 28.4533 23.9916 28.56C24.165 28.56 24.285 28.5267 24.3516 28.46C24.4183 28.3933 24.4516 28.2733 24.4516 28.1ZM18.7316 28.14C18.6916 28.14 18.6383 28.1667 18.5716 28.22C18.505 28.2733 18.4716 28.3133 18.4716 28.34L18.4916 28.4C18.5316 28.4 18.585 28.38 18.6516 28.34C18.7183 28.3 18.7516 28.2667 18.7516 28.24L18.7316 28.14ZM19.1516 28.36C18.9783 28.36 18.8383 28.46 18.7316 28.66C19.0116 28.66 19.1516 28.56 19.1516 28.36ZM23.7916 29C23.805 29.0267 23.8316 29.06 23.8716 29.1C23.9116 29.1267 23.9516 29.14 23.9916 29.14C24.045 29.1133 24.125 29.06 24.2316 28.98C24.3383 28.8867 24.3916 28.82 24.3916 28.78C24.3916 28.74 24.365 28.72 24.3116 28.72C24.2316 28.72 24.1316 28.7533 24.0116 28.82C23.905 28.8733 23.8316 28.9333 23.7916 29ZM18.7916 29.42C18.885 29.42 18.965 29.34 19.0316 29.18C19.0983 29.02 19.1316 28.9 19.1316 28.82C18.9983 28.82 18.865 28.8467 18.7316 28.9C18.6116 28.9533 18.5316 29.0333 18.4916 29.14C18.505 29.1933 18.545 29.2533 18.6116 29.32C18.6916 29.3733 18.7516 29.4067 18.7916 29.42ZM24.2316 29.5C24.2316 29.54 24.245 29.58 24.2716 29.62C24.3116 29.66 24.345 29.68 24.3716 29.68C24.5983 29.68 24.7116 29.5067 24.7116 29.16C24.6316 29.16 24.5316 29.1933 24.4116 29.26C24.2916 29.3267 24.2316 29.4067 24.2316 29.5ZM19.1116 29.5C19.3116 29.4733 19.4116 29.38 19.4116 29.22C19.2383 29.22 19.1383 29.3133 19.1116 29.5ZM22.9316 30.04C23.065 30.04 23.185 29.98 23.2916 29.86C23.3983 29.7267 23.4516 29.5867 23.4516 29.44L23.4316 29.26C23.3916 29.2733 23.3383 29.3133 23.2716 29.38C23.2183 29.4467 23.185 29.4933 23.1716 29.52C23.1716 29.5467 23.1783 29.5733 23.1916 29.6C23.205 29.6133 23.2116 29.62 23.2116 29.62H22.9316V30.04ZM22.5516 30.26C22.5783 30.26 22.605 30.1933 22.6316 30.06C22.6583 29.9133 22.6783 29.8067 22.6916 29.74C22.4783 29.74 22.2583 29.8133 22.0316 29.96C21.805 30.0933 21.6916 30.2667 21.6916 30.48L22.5516 30.26ZM24.5916 30.16C24.6983 30.0933 24.7516 30.0067 24.7516 29.9H24.4516C24.4516 30.02 24.4983 30.1067 24.5916 30.16ZM24.9316 30.22C25.1583 30.22 25.2916 30.1733 25.3316 30.08C25.265 29.9733 25.205 29.92 25.1516 29.92C25.085 29.92 25.0316 29.9533 24.9916 30.02C24.9516 30.0867 24.9316 30.1533 24.9316 30.22ZM19.8316 30.14C19.885 30.1667 19.9783 30.22 20.1116 30.3C20.2583 30.3667 20.365 30.4 20.4316 30.4C20.4316 30.3333 20.3783 30.2467 20.2716 30.14C20.1783 30.0333 20.105 29.98 20.0516 29.98C19.9583 29.98 19.885 30.0333 19.8316 30.14ZM21.1316 30.64C21.185 30.64 21.225 30.6 21.2516 30.52C21.2916 30.4267 21.3116 30.34 21.3116 30.26L21.2116 30.24C21.0516 30.24 20.925 30.32 20.8316 30.48C21.005 30.5867 21.105 30.64 21.1316 30.64ZM25.1516 30.48C25.1516 30.6133 25.405 30.68 25.9116 30.68C25.9116 30.56 25.8983 30.46 25.8716 30.38C25.8583 30.3 25.805 30.26 25.7116 30.26C25.605 30.26 25.4916 30.28 25.3716 30.32C25.265 30.36 25.1916 30.4133 25.1516 30.48ZM30.402 30.6C29.882 28.4267 29.3086 26.78 28.682 25.66C28.5353 25.5667 28.4086 25.42 28.302 25.22C28.1953 25.02 28.1086 24.8333 28.042 24.66C27.9753 24.4733 27.9353 24.36 27.922 24.32C27.9086 24.32 27.782 24.0333 27.542 23.46C27.542 23.3133 27.482 23.0733 27.362 22.74C27.242 22.3933 27.1753 22.18 27.162 22.1C27.162 21.8467 27.3953 21.72 27.862 21.72L28.322 21.74C28.4686 21.74 28.622 21.88 28.782 22.16C28.9553 22.44 29.102 22.7533 29.222 23.1C29.342 23.4467 29.402 23.6867 29.402 23.82C29.722 24.7133 30.082 25.6333 30.482 26.58C30.8953 27.5133 31.282 28.2 31.642 28.64L31.742 28.5C31.822 28.22 31.9286 27.9333 32.062 27.64C32.1953 27.3333 32.282 27.14 32.322 27.06C32.5486 26.62 32.7286 26.2 32.862 25.8L33.022 25.3C33.7553 22.9267 34.1553 21.74 34.222 21.74H35.702L35.822 21.84C35.822 23.08 35.5886 24.3533 35.122 25.66C34.6553 26.9533 34.022 28.4 33.222 30C33.182 30.0667 33.142 30.1933 33.102 30.38C33.062 30.5533 33.0153 30.7 32.962 30.82C32.922 30.94 32.842 31.04 32.722 31.12L31.742 31.14C31.422 31.14 31.1486 31.1 30.922 31.02C30.7086 30.9533 30.5353 30.8133 30.402 30.6ZM34.442 22.72C34.522 22.76 34.562 22.8 34.562 22.84C34.562 22.88 34.5286 22.9267 34.462 22.98C34.4086 23.02 34.3686 23.0533 34.342 23.08C34.582 23.08 34.7886 23.06 34.962 23.02C35.1353 22.9667 35.2553 22.8667 35.322 22.72C35.2553 22.6 35.222 22.5067 35.222 22.44C35.222 22.36 35.222 22.3067 35.222 22.28C34.9286 22.28 34.722 22.3 34.602 22.34C34.4953 22.3667 34.442 22.4933 34.442 22.72ZM27.802 22.28C27.802 22.4267 27.882 22.7133 28.042 23.14C28.2153 23.5667 28.402 23.96 28.602 24.32C28.8153 24.6667 28.9686 24.84 29.062 24.84C29.062 24.6533 28.9886 24.3467 28.842 23.92C28.7086 23.4933 28.542 23.1133 28.342 22.78C28.142 22.4467 27.962 22.28 27.802 22.28ZM34.962 23.2C34.6686 23.2533 34.4486 23.3267 34.302 23.42C34.1553 23.5 34.082 23.6467 34.082 23.86C34.3353 23.86 34.6286 23.64 34.962 23.2ZM34.962 23.7C34.5886 23.8067 34.302 24.0133 34.102 24.32L34.622 24.34C34.782 24.34 34.8753 24.3067 34.902 24.24C34.942 24.16 34.962 23.98 34.962 23.7ZM33.822 24.68C33.7553 24.68 33.702 24.76 33.662 24.92C33.622 25.0667 33.602 25.1933 33.602 25.3C33.7886 25.3 33.9886 25.24 34.202 25.12C34.4153 25 34.582 24.8533 34.702 24.68H33.822ZM29.162 25.38C29.162 25.4733 29.1753 25.5467 29.202 25.6C29.2286 25.64 29.2953 25.66 29.402 25.66C29.3486 25.4067 29.2686 25.2533 29.162 25.2V25.38ZM33.962 25.92C33.9486 26.0133 33.882 26.06 33.762 26.06C33.7353 26.06 33.6686 26.06 33.562 26.06C33.4553 26.0467 33.3686 26.0933 33.302 26.2C33.2486 26.2933 33.222 26.4467 33.222 26.66C34.1553 26.2867 34.622 25.86 34.622 25.38L34.602 25.2C34.3486 25.36 34.0553 25.5133 33.722 25.66L33.962 25.92ZM29.522 26.1C29.5353 26.2067 29.5686 26.3867 29.622 26.64C29.6753 26.8933 29.7286 27.02 29.782 27.02H30.042C30.042 26.8733 29.982 26.6733 29.862 26.42C29.742 26.1533 29.6286 25.9867 29.522 25.92V26.1ZM33.222 26.92C33.382 27.08 33.5486 27.16 33.722 27.16C33.8553 27.16 33.9553 27.0867 34.022 26.94C34.0886 26.7933 34.122 26.64 34.122 26.48C34.0153 26.48 33.882 26.56 33.722 26.72C33.5886 26.88 33.4686 26.96 33.362 26.96C33.322 26.96 33.2753 26.9467 33.222 26.92ZM30.022 27.4C30.022 27.4533 30.0553 27.4933 30.122 27.52C30.202 27.5467 30.262 27.56 30.302 27.56C30.302 27.32 30.2553 27.1867 30.162 27.16C30.1353 27.1733 30.102 27.2067 30.062 27.26C30.0353 27.3133 30.022 27.36 30.022 27.4ZM32.862 27.28C32.8086 27.3733 32.7553 27.5067 32.702 27.68C32.6486 27.84 32.6153 27.96 32.602 28.04C32.682 28.0133 32.822 27.9467 33.022 27.84C33.222 27.72 33.3686 27.6133 33.462 27.52C33.422 27.4267 33.342 27.3667 33.222 27.34C33.102 27.3 32.982 27.28 32.862 27.28ZM30.042 27.82C30.042 28.1267 30.1753 28.28 30.442 28.28C30.442 28.1067 30.4153 27.98 30.362 27.9C30.3086 27.82 30.2086 27.7467 30.062 27.68L30.042 27.82ZM33.002 28.14C33.042 28.26 33.1953 28.3467 33.462 28.4V28.02C33.422 28.0333 33.3553 28.0533 33.262 28.08C33.182 28.0933 33.0953 28.1133 33.002 28.14ZM30.522 28.64C30.522 28.7467 30.5553 28.82 30.622 28.86C30.6886 28.9 30.7886 28.92 30.922 28.92C30.922 28.8133 30.902 28.7 30.862 28.58C30.8353 28.4467 30.782 28.38 30.702 28.38C30.582 28.38 30.522 28.4667 30.522 28.64ZM32.362 28.88C32.3753 28.88 32.3953 28.8867 32.422 28.9C32.4486 28.9 32.4886 28.9 32.542 28.9C32.662 28.9 32.7686 28.8867 32.862 28.86C32.9553 28.82 33.002 28.7667 33.002 28.7C33.002 28.6067 32.942 28.5333 32.822 28.48C32.702 28.4267 32.5886 28.4 32.482 28.4L32.362 28.88ZM30.642 29.12C30.6686 29.2133 30.7086 29.38 30.762 29.62C30.8153 29.86 30.8753 30.0467 30.942 30.18C31.022 30.3133 31.1086 30.38 31.202 30.38C31.3886 30.38 31.6286 30.3333 31.922 30.24C32.2286 30.1333 32.4153 30.0133 32.482 29.88L32.522 29.96C32.522 29.9733 32.482 30.0133 32.402 30.08C32.3353 30.1333 32.2886 30.1867 32.262 30.24L32.362 30.38C32.5086 30.2733 32.6686 30.06 32.842 29.74C33.0286 29.4067 33.122 29.1533 33.122 28.98C33.042 29.0067 32.902 29.06 32.702 29.14C32.502 29.22 32.3553 29.3 32.262 29.38L32.482 29.62C32.4153 29.6333 32.2886 29.6933 32.102 29.8C31.9153 29.9333 31.782 30 31.702 30C31.6353 29.9867 31.542 29.9533 31.422 29.9C31.3153 29.8467 31.2153 29.7933 31.122 29.74C31.1486 29.7267 31.1753 29.7067 31.202 29.68C31.2286 29.6533 31.2486 29.6333 31.262 29.62C31.262 29.4067 31.242 29.2667 31.202 29.2C31.162 29.1333 31.0553 29.1 30.882 29.1L30.642 29.12ZM39.1102 17.62C39.1236 17.5933 39.2636 17.5667 39.5302 17.54C39.7969 17.5 40.0236 17.48 40.2102 17.48C40.3169 17.48 40.4436 17.5133 40.5902 17.58C40.7502 17.6333 40.8302 17.6867 40.8302 17.74V19.22C40.8302 19.3933 40.7102 19.48 40.4702 19.48C40.1502 19.48 39.7969 19.4533 39.4102 19.4C39.0369 19.3467 38.8502 19.2467 38.8502 19.1V17.84L39.1102 17.62ZM39.2902 18.1C39.2902 18.2333 39.3169 18.3733 39.3702 18.52C39.4236 18.6533 39.5102 18.72 39.6302 18.72C39.8702 18.72 40.0369 18.7 40.1302 18.66C40.2369 18.62 40.2902 18.52 40.2902 18.36C40.2902 18.2933 40.2636 18.2067 40.2102 18.1C40.1702 18.1133 40.1169 18.14 40.0502 18.18C39.9969 18.22 39.9302 18.24 39.8502 18.24L39.9902 18.1H39.2902ZM39.3502 30.8C39.3236 30.7067 39.2636 30.5933 39.1702 30.46C39.0769 30.3267 39.0169 30.2 38.9902 30.08C38.8036 29.3067 38.6836 28.5 38.6302 27.66C38.5769 26.8067 38.5502 25.8 38.5502 24.64V24C38.5502 23.16 38.6236 22.52 38.7702 22.08C38.9169 21.64 39.2369 21.42 39.7302 21.42C40.2236 21.42 40.5569 21.6333 40.7302 22.06C40.9169 22.4733 41.0102 23.0133 41.0102 23.68C41.0102 24.4133 40.9569 25.22 40.8502 26.1C40.7569 26.78 40.7102 27.38 40.7102 27.9C40.7102 28.2333 40.7369 28.72 40.7902 29.36C40.8036 29.52 40.8169 29.7133 40.8302 29.94C40.8436 30.1667 40.8502 30.4333 40.8502 30.74C40.8502 30.9533 40.7636 31.06 40.5902 31.06C40.4302 31.0333 40.2236 30.9933 39.9702 30.94C39.7302 30.8867 39.5236 30.84 39.3502 30.8ZM39.5502 22.68C40.0836 22.68 40.3502 22.6 40.3502 22.44C40.3502 22.28 40.3302 22.1733 40.2902 22.12C40.2636 22.0667 40.2036 22.04 40.1102 22.04C40.0836 22.04 40.0236 22.0667 39.9302 22.12C39.8369 22.16 39.7702 22.18 39.7302 22.18C39.7036 22.18 39.6702 22.16 39.6302 22.12C39.5902 22.0667 39.5369 22.04 39.4702 22.04C39.3769 22.04 39.3036 22.06 39.2502 22.1C39.2102 22.1267 39.1636 22.1933 39.1102 22.3C39.2169 22.4067 39.3169 22.46 39.4102 22.46L39.4702 22.44L39.3502 22.68H39.5502ZM39.0902 23.26C39.0902 23.2867 39.1036 23.32 39.1302 23.36C39.1702 23.3867 39.2036 23.4 39.2302 23.4C39.3502 23.4 39.4969 23.3133 39.6702 23.14C39.8436 22.9533 39.9502 22.84 39.9902 22.8H39.9102C39.8036 22.8 39.6436 22.8333 39.4302 22.9C39.2169 22.9667 39.1102 23.08 39.1102 23.24L39.0902 23.26ZM40.3902 22.84C40.0436 22.84 39.6969 23.1467 39.3502 23.76C39.5369 23.6933 39.7502 23.66 39.9902 23.66C40.1102 23.66 40.1969 23.6467 40.2502 23.62C40.3036 23.5933 40.3369 23.5267 40.3502 23.42C40.3769 23.3 40.3902 23.1067 40.3902 22.84ZM39.1102 24.5C39.1102 24.5267 39.1236 24.56 39.1502 24.6C39.1902 24.6267 39.2169 24.64 39.2302 24.64C39.5236 24.48 39.8102 24.24 40.0902 23.92L39.9102 23.9C39.6969 23.9 39.5102 23.9533 39.3502 24.06C39.1902 24.1533 39.1102 24.3 39.1102 24.5ZM40.3502 24.04C39.9902 24.2267 39.7436 24.4667 39.6102 24.76L39.7902 24.78C39.8836 24.78 39.9969 24.7733 40.1302 24.76C40.2769 24.7333 40.3502 24.6933 40.3502 24.64V24.04ZM39.6102 25.9C40.2102 25.9 40.5102 25.6067 40.5102 25.02H40.3502L39.6102 25.76V25.9ZM39.6102 25.12C39.3436 25.12 39.2102 25.2333 39.2102 25.46L39.2302 25.66L39.7302 25.14L39.6102 25.12ZM39.8702 26.1C39.6969 26.1 39.5302 26.1533 39.3702 26.26C39.2102 26.3667 39.1302 26.5 39.1302 26.66C39.2769 26.66 39.4369 26.6067 39.6102 26.5C39.7836 26.38 39.8702 26.2467 39.8702 26.1ZM40.2102 26.24C40.1569 26.2667 40.0102 26.3867 39.7702 26.6C39.5436 26.8133 39.3636 26.9867 39.2302 27.12H40.2102C40.2902 27.12 40.3369 27.04 40.3502 26.88C40.3769 26.7067 40.3902 26.4933 40.3902 26.24H40.2102ZM39.2302 27.6C39.2302 27.7733 39.2702 27.86 39.3502 27.86L39.9902 27.36V27.24C39.4836 27.3067 39.2302 27.4267 39.2302 27.6ZM39.3502 28.38C39.6836 28.38 39.9102 28.3133 40.0302 28.18C40.1636 28.0467 40.2302 27.8133 40.2302 27.48H40.0902L39.3502 28.22V28.38ZM39.3502 28.84C39.3502 28.88 39.3636 28.9267 39.3902 28.98C39.4169 29.02 39.4436 29.0533 39.4702 29.08L39.9902 28.6L39.7902 28.58C39.5369 28.58 39.3902 28.6667 39.3502 28.84ZM39.3502 29.96C39.4036 30.1067 39.5102 30.2 39.6702 30.24C39.8436 30.2667 40.0436 30.28 40.2702 30.28C40.2702 30.16 40.2302 30.06 40.1502 29.98C40.0836 29.8867 40.0502 29.8333 40.0502 29.82C40.0502 29.82 40.0902 29.8 40.1702 29.76C40.2502 29.72 40.2902 29.4133 40.2902 28.84H39.9902C39.9636 28.84 39.8636 28.9467 39.6902 29.16C39.5302 29.3733 39.4502 29.5067 39.4502 29.56V29.58H39.9902L39.3502 29.96ZM48.7549 21.22C48.7949 21.22 48.8483 21.2533 48.9149 21.32C48.9949 21.3733 49.0349 21.42 49.0349 21.46V22.94L48.8949 23.06C48.8016 23.06 48.4816 23.06 47.9349 23.06C47.4016 23.06 46.9016 23.1 46.4349 23.18L46.4549 23.32C46.4549 23.4933 46.4083 23.7067 46.3149 23.96C46.2349 24.2267 46.1949 24.42 46.1949 24.54C46.1949 24.5667 46.2083 24.6 46.2349 24.64C46.2749 24.6667 46.3016 24.68 46.3149 24.68V26.76C46.4083 26.8533 46.4549 27.06 46.4549 27.38L46.4349 27.88C46.5016 27.8933 46.5416 28.0533 46.5549 28.36C46.5683 28.6533 46.6683 28.92 46.8549 29.16C47.0549 29.4 47.4483 29.5467 48.0349 29.6C48.0749 29.6 48.1683 29.6133 48.3149 29.64C48.4616 29.6533 48.5749 29.7 48.6549 29.78C48.7349 29.8467 48.7749 29.9533 48.7749 30.1C48.7749 30.34 48.7549 30.52 48.7149 30.64C48.6749 30.76 48.6016 30.9067 48.4949 31.08L48.2949 31.44C48.0683 31.4267 47.8149 31.38 47.5349 31.3C47.2549 31.22 46.9883 31.14 46.7349 31.06C46.0949 30.8467 45.6349 30.7333 45.3549 30.72C45.0883 30.72 44.9083 30.4333 44.8149 29.86C44.7349 29.2733 44.6949 28.7133 44.6949 28.18C44.6949 27.8067 44.7283 27.4533 44.7949 27.12C44.8083 27.0267 44.8216 26.92 44.8349 26.8C44.8483 26.68 44.8549 26.5467 44.8549 26.4C44.8549 25.76 44.7683 24.6867 44.5949 23.18C44.4749 23.1667 44.3549 23.1467 44.2349 23.12C44.1283 23.0933 44.0349 23.0733 43.9549 23.06C43.6083 22.9667 43.3616 22.92 43.2149 22.92C43.1483 22.92 43.0683 22.8267 42.9749 22.64C42.8816 22.44 42.8349 22.28 42.8349 22.16C42.8349 21.8933 42.9216 21.72 43.0949 21.64C43.2683 21.56 43.5149 21.5133 43.8349 21.5C44.0083 21.5 44.1349 21.4933 44.2149 21.48C44.2949 21.4533 44.3416 21.4067 44.3549 21.34C44.3549 21.0333 44.3749 20.7067 44.4149 20.36C44.4683 20.0133 44.5283 19.8067 44.5949 19.74C44.7683 19.8067 44.8549 20.12 44.8549 20.68L44.8349 21.22L44.9549 21.34C44.9816 21.3267 45.1349 21.2533 45.4149 21.12C45.6949 20.9867 45.8349 20.8667 45.8349 20.76L45.8149 20.6C45.8149 20.56 45.8349 20.4133 45.8749 20.16C45.9149 19.9067 45.9349 19.72 45.9349 19.6H45.8949C45.8283 19.6 45.6616 19.6667 45.3949 19.8C45.1283 19.92 44.9816 19.98 44.9549 19.98C45.0216 19.9133 45.1883 19.7867 45.4549 19.6C45.1883 19.5467 44.9816 19.4667 44.8349 19.36C44.9549 19.2667 45.0749 19.2067 45.1949 19.18C45.3283 19.14 45.4883 19.1133 45.6749 19.1C45.9149 19.1 46.1283 19.0667 46.3149 19C46.3149 19.0533 46.3549 19.12 46.4349 19.2C46.5149 19.2667 46.5549 19.32 46.5549 19.36C46.5416 19.4133 46.5216 19.4933 46.4949 19.6C46.4683 19.6933 46.4483 19.78 46.4349 19.86C46.4349 20.3133 46.4816 20.6467 46.5749 20.86C46.6683 21.0733 46.8083 21.2067 46.9949 21.26C47.1949 21.3133 47.5016 21.34 47.9149 21.34C48.0083 21.34 48.1416 21.32 48.3149 21.28C48.4883 21.24 48.6349 21.22 48.7549 21.22ZM45.8149 20.58V20.6V20.58ZM46.4349 21.82C46.3416 21.78 46.2149 21.6667 46.0549 21.48C46.0416 21.4667 45.9949 21.42 45.9149 21.34C45.8483 21.2467 45.7816 21.2 45.7149 21.2C45.5283 21.2 45.4349 21.2867 45.4349 21.46H45.5749C45.4683 21.6333 45.2683 21.7667 44.9749 21.86C44.6816 21.9533 44.3283 22.0333 43.9149 22.1C43.7683 22.1267 43.6349 22.1533 43.5149 22.18C43.4083 22.2067 43.3549 22.2333 43.3549 22.26C43.3549 22.34 43.5016 22.4133 43.7949 22.48C44.1016 22.5467 44.3216 22.58 44.4549 22.58L45.5749 21.7H45.8349L45.1949 22.32V22.44L46.4349 21.82ZM47.0549 21.82C46.9483 21.82 46.8549 21.8533 46.7749 21.92C46.7083 21.9733 46.6349 22.0667 46.5549 22.2C46.6216 22.1867 46.7283 22.14 46.8749 22.06C47.0349 21.9667 47.1349 21.8867 47.1749 21.82H47.0549ZM48.5349 21.96L47.9349 21.94L47.3149 21.96C47.2083 21.9733 47.0549 22.0467 46.8549 22.18C46.6549 22.3 46.5549 22.3867 46.5549 22.44V22.6C46.6216 22.6 46.7483 22.5467 46.9349 22.44C47.1216 22.3333 47.2483 22.2533 47.3149 22.2L47.0549 22.58C47.2149 22.58 47.4416 22.5533 47.7349 22.5C47.8149 22.4867 47.9083 22.4733 48.0149 22.46C48.1216 22.4467 48.2483 22.44 48.3949 22.44L48.5349 21.96ZM45.9349 22.44V22.32C45.8683 22.36 45.8016 22.4 45.7349 22.44C45.6816 22.4667 45.6283 22.5 45.5749 22.54C45.1483 22.7533 44.9349 22.9267 44.9349 23.06H45.1949L45.9349 22.44ZM45.6949 23.18C45.5349 23.18 45.3883 23.2533 45.2549 23.4C45.1349 23.5333 45.0749 23.66 45.0749 23.78V23.88C45.0749 24.0667 45.1149 24.1667 45.1949 24.18C45.3416 24.0733 45.4616 23.9467 45.5549 23.8C45.6616 23.64 45.7149 23.48 45.7149 23.32L45.6949 23.18ZM46.3349 29.42C46.3349 29.3 46.2883 29.24 46.1949 29.24L46.0149 29.26L46.0749 28.5C46.0483 28.2733 46.0083 28.04 45.9549 27.8C45.9016 27.5467 45.8616 27.3667 45.8349 27.26L45.6949 27.14L45.8349 27.02L45.8549 26.56C45.8549 26.2533 45.8283 25.8333 45.7749 25.3C45.7083 24.8333 45.6749 24.4 45.6749 24C45.5149 24 45.3949 24.1 45.3149 24.3C45.2349 24.4867 45.1949 24.6733 45.1949 24.86C45.1949 25.0467 45.2149 25.16 45.2549 25.2C45.2949 25.2267 45.3149 25.2533 45.3149 25.28C45.3149 25.3333 45.2883 25.3933 45.2349 25.46C45.1949 25.5267 45.1749 25.62 45.1749 25.74C45.1749 26.02 45.2416 26.16 45.3749 26.16H45.4149C45.3616 26.2133 45.3083 26.3333 45.2549 26.52C45.2149 26.7067 45.1949 26.8733 45.1949 27.02C45.2883 27.02 45.3349 27.0533 45.3349 27.12C45.3349 27.1733 45.2883 27.2667 45.1949 27.4C45.1016 27.52 45.0549 27.5867 45.0549 27.6C45.0549 27.76 45.0883 27.9067 45.1549 28.04C45.2216 28.1733 45.2549 28.2667 45.2549 28.32C45.2549 28.4267 45.1949 28.5667 45.0749 28.74C45.0883 28.78 45.1216 28.8533 45.1749 28.96C45.2283 29.0533 45.2749 29.1 45.3149 29.1C45.3949 29.1 45.4883 29.0867 45.5949 29.06C45.7149 29.0333 45.7949 29.0067 45.8349 28.98C45.7816 29.06 45.6749 29.14 45.5149 29.22C45.3683 29.3 45.2616 29.3467 45.1949 29.36C45.1949 29.9867 45.5816 30.3 46.3549 30.3C46.3549 30.58 46.4549 30.72 46.6549 30.72C46.7216 30.72 46.7949 30.7 46.8749 30.66C46.9549 30.6067 47.0149 30.54 47.0549 30.46C47.0816 30.46 47.1016 30.4733 47.1149 30.5C47.1283 30.5133 47.1483 30.52 47.1749 30.52V30.74C47.4949 30.74 47.7816 30.5667 48.0349 30.22C48.0083 30.06 47.7216 29.98 47.1749 29.98C47.1216 29.98 47.0549 29.9933 46.9749 30.02C46.9083 30.0467 46.8483 30.0733 46.7949 30.1C46.8083 30.0867 46.8149 30.06 46.8149 30.02C46.8149 29.94 46.7416 29.8733 46.5949 29.82C46.4483 29.7533 46.3349 29.72 46.2549 29.72C46.1749 29.72 46.0616 29.74 45.9149 29.78C45.7816 29.82 45.6683 29.84 45.5749 29.84C45.6016 29.7867 45.7149 29.72 45.9149 29.64C46.1149 29.5467 46.2483 29.4867 46.3149 29.46L46.3349 29.42ZM45.4549 26.14L45.4149 26.16L45.4549 26.14ZM48.2149 30.84C48.2149 30.6267 48.1549 30.5 48.0349 30.46C47.9683 30.5 47.9016 30.56 47.8349 30.64C47.7816 30.7067 47.7549 30.7733 47.7549 30.84H48.2149Z" fill="#3F6B51"/>
<g clip-path="url(#clip0_1306_7223)">
<path d="M30.9561 23.2749C30.7728 23.2749 30.6238 23.1271 30.6225 22.9437C30.6225 22.4324 30.6225 10.3933 37.1703 5.33088C37.3247 5.23042 37.5314 5.27412 37.632 5.42828C37.7218 5.56633 37.6975 5.74937 37.5745 5.8592C31.2898 10.7294 31.2874 22.8171 31.2874 22.9389C31.2887 23.123 31.1405 23.2736 30.9561 23.2749Z" fill="#5FA348"/>
<path d="M32.7728 13.559C32.7728 13.559 33.613 9.20753 38.2541 10.9291C38.2541 10.9291 36.0771 15.0907 32.7728 13.559Z" fill="#65B54E"/>
<path d="M32.159 13.5566C32.159 13.5566 34.1656 9.59965 29.4269 8.15808C29.4269 8.15797 28.599 12.7748 32.159 13.5566Z" fill="#65B54E"/>
<path d="M35.1396 8.41126C35.1396 8.41126 36.8052 4.90469 40.3653 7.38121C40.3579 7.38132 37.5991 10.4323 35.1396 8.41126Z" fill="#65B54E"/>
<path d="M34.6112 8.27479C34.6112 8.27479 37.1801 5.35276 33.4789 3.09546C33.4789 3.09546 31.7647 6.83083 34.6112 8.27479Z" fill="#65B54E"/>
<path d="M37.0657 5.76428C37.0657 5.76428 38.1688 1.19857 43 3.25617C43 3.25628 40.4968 7.54687 37.0657 5.76428Z" fill="#65B54E"/>
<path d="M31.0634 23.2676C31.1956 23.2431 31.283 23.1163 31.2586 22.9839C31.2578 22.9795 31.2569 22.975 31.2558 22.9705C31.1755 22.5955 29.2371 13.7587 23.617 11.0947C23.4919 11.0355 23.3426 11.0889 23.2834 11.2141C23.2242 11.3392 23.2776 11.4885 23.4028 11.5477C28.8088 14.1045 30.7568 22.9803 30.7568 23.0752C30.78 23.2077 30.906 23.2963 31.0385 23.2732C31.0436 23.2722 31.0488 23.2712 31.0539 23.27L31.0634 23.2676Z" fill="#5FA348"/>
<path d="M29.7824 20.1385C29.7824 20.1385 29.1152 16.5711 25.3043 17.947C25.3117 17.9567 27.0747 21.3779 29.7824 20.1385Z" fill="#65B54E"/>
<path d="M30.2913 20.141C30.2913 20.141 28.6671 16.8926 32.5535 15.7311C32.5536 15.7311 33.2111 19.5151 30.2913 20.141Z" fill="#65B54E"/>
<path d="M28.168 16.4275C28.168 16.4275 26.8604 13.3691 23.7192 15.3781C23.7192 15.378 25.9886 18.0834 28.168 16.4275Z" fill="#65B54E"/>
<path d="M28.6185 16.3276C28.6185 16.3276 26.5073 13.7439 29.7557 11.925C29.7557 11.925 31.1047 15.188 28.6185 16.3276Z" fill="#65B54E"/>
<path d="M25.6064 13.0282C25.6064 13.0282 23.8214 10.7197 21.6056 13.1109C21.6054 13.1109 24.1209 14.9105 25.6064 13.0282Z" fill="#65B54E"/>
<path d="M25.9667 12.843C25.9667 12.843 23.612 11.114 25.9667 8.85913C25.9667 8.85695 27.8344 11.3261 25.9667 12.843Z" fill="#65B54E"/>
<path d="M23.7605 11.3967C23.7605 11.3967 22.219 8.23104 19 10.5006C19 10.5004 21.5349 13.2546 23.7605 11.3967Z" fill="#65B54E"/>
<path d="M30.6396 18.7701C30.8875 17.988 31.2744 17.2572 31.7817 16.6127C31.4225 17.0224 31.1135 17.4738 30.8612 17.9568C30.8927 17.7103 30.8644 17.4596 30.7786 17.2263C30.8673 17.5052 30.8725 17.8041 30.7932 18.0858C30.3826 18.9003 30.1391 19.7887 30.0773 20.6987H30.3208C30.3306 20.1085 30.4191 19.5221 30.5839 18.9552H30.6034C30.8804 18.4707 31.3355 18.1133 31.872 17.9592C31.3796 18.079 30.9443 18.3654 30.6396 18.7701Z" fill="#5FA348"/>
<path d="M29.0764 19.3543H29.091C28.911 18.9486 28.6098 18.6082 28.2289 18.3803C28.5642 18.6056 28.8285 18.9215 28.9912 19.291C28.721 19.1097 28.4386 18.9471 28.1462 18.804L28.1608 18.7894L27.3135 18.037L28.044 18.7456C27.5426 18.5058 27.0146 18.3259 26.471 18.2099C27.1116 18.383 27.7243 18.647 28.2901 18.994C27.7819 19.0122 27.2733 18.983 26.7706 18.9063C27.315 19.0203 27.8701 19.0774 28.4265 19.0767C28.6695 19.2319 28.9022 19.4026 29.1229 19.5881L27.3843 19.6636L29.2325 19.6807C29.5608 19.9626 29.8602 20.2766 30.1261 20.6181L30.3113 20.472C29.9467 20.0503 29.532 19.675 29.0764 19.3543Z" fill="#5FA348"/>
<path d="M28.6283 15.3852C28.6402 15.0226 28.6826 14.6618 28.755 14.3064C28.8845 14.0287 29.0974 13.7981 29.3638 13.6466C29.1369 13.7589 28.9419 13.9263 28.7965 14.1336C28.8995 13.6954 29.0489 13.2693 29.2421 12.8625C29.113 13.0982 29 13.3423 28.9037 13.5931C28.9221 13.4029 28.8893 13.2112 28.8087 13.0379C28.9133 13.282 28.923 13.5564 28.8354 13.8073C28.7086 14.1697 28.6157 14.5429 28.5577 14.9225C28.4658 14.6626 28.3535 14.41 28.2217 14.1677C28.3539 14.4426 28.4614 14.7287 28.5431 15.0224C28.4506 15.6375 28.4506 16.2629 28.5431 16.8779L28.755 16.8365C28.6672 16.4096 28.6255 15.9745 28.6307 15.5386C28.7564 15.1587 29.016 14.8374 29.3613 14.6352C29.0423 14.7993 28.7849 15.0624 28.6283 15.3852Z" fill="#5FA348"/>
<path d="M28.6915 16.6149C28.2817 16.3112 27.836 16.0593 27.3645 15.8648C27.1128 15.5829 26.8007 15.3615 26.4513 15.2171C26.7537 15.3611 27.023 15.5658 27.2427 15.8185C26.8875 15.6795 26.521 15.572 26.1468 15.4971L25.3067 14.9834L26.0251 15.4704C25.6238 15.3944 25.216 15.3578 24.8076 15.3608C25.4465 15.3865 26.0779 15.5088 26.6802 15.7237L25.6429 15.7578L26.8386 15.7872C27.4642 16.0235 28.0474 16.3598 28.5649 16.7831L28.6915 16.6149Z" fill="#5FA348"/>
<path d="M26.1931 13.2398C26.0261 12.8993 25.8961 12.5418 25.8059 12.1733C25.8475 11.9293 25.9712 11.7067 26.1566 11.5426C25.9791 11.6827 25.8492 11.8739 25.784 12.0904C25.6996 11.7301 25.6522 11.362 25.6427 10.9921C25.6594 10.6062 25.8582 10.2511 26.1784 10.0352C25.9242 10.1912 25.7341 10.4331 25.6427 10.7169C25.6427 10.6779 25.6427 10.639 25.6427 10.5975C25.6537 10.3236 25.6854 10.051 25.7377 9.78186C25.6807 10.0185 25.6386 10.2583 25.6111 10.5003L25.4577 10.0133L25.6014 10.5611C25.5742 10.8337 25.5676 11.1082 25.5819 11.3817C25.5133 11.2305 25.4128 11.096 25.2872 10.9872C25.4264 11.1213 25.5287 11.2891 25.5843 11.4742C25.6212 12.1119 25.7696 12.7384 26.0225 13.3249L26.1931 13.2398Z" fill="#5FA348"/>
<path d="M26.0933 13.0718C25.7401 12.9278 25.3728 12.8209 24.9975 12.7528H24.978C24.7518 12.7125 24.5232 12.6858 24.2936 12.6725C23.891 12.6371 23.4958 12.5435 23.1199 12.3949C23.3753 12.5125 23.6421 12.6031 23.9162 12.6651C23.4432 12.6713 22.9729 12.7368 22.516 12.86C22.7264 12.815 22.9395 12.7834 23.154 12.765C23.0045 12.8111 22.8661 12.8874 22.7472 12.989C22.9447 12.8425 23.181 12.7578 23.4266 12.7455C23.8132 12.7271 24.201 12.749 24.5832 12.8113C24.1939 12.898 23.8323 13.0804 23.5313 13.3422C23.8961 13.0603 24.3355 12.8911 24.7951 12.8552C25.2155 12.9382 25.6243 13.0714 26.0127 13.2521L26.0933 13.0718Z" fill="#5FA348"/>
<path d="M22.9083 10.8511C22.4445 10.5062 21.9281 10.2381 21.379 10.0574C21.8448 10.2274 22.2817 10.4681 22.6746 10.7708C22.344 10.6653 22.0063 10.5841 21.664 10.5273V10.5128H21.6226C21.1351 10.4325 20.6404 10.4056 20.147 10.4325C20.5834 10.4311 21.0189 10.4727 21.4473 10.5567C21.0379 10.6541 20.6208 10.7152 20.2006 10.7393C20.6777 10.7386 21.1534 10.6888 21.6202 10.5908C21.8275 10.6335 22.0322 10.6871 22.2339 10.7514C21.9076 10.9409 21.5311 11.026 21.1551 10.9949C21.554 11.0492 21.9596 10.9731 22.3118 10.7781C22.5716 10.8665 22.826 10.9696 23.074 11.0874C22.5487 11.2941 21.9938 11.4167 21.4303 11.4503C22.0303 11.4481 22.6255 11.3444 23.1908 11.1434C23.5394 11.3161 23.8711 11.5207 24.1818 11.7547L24.3181 11.5695C23.8788 11.2742 23.4054 11.0329 22.9083 10.8511Z" fill="#5FA348"/>
<path d="M36.7224 11.8324C36.176 11.8052 35.6283 11.828 35.0861 11.9006C35.6453 11.6094 36.235 11.3808 36.8442 11.2189C35.9911 11.3998 35.1702 11.7085 34.4092 12.1344C34.6863 11.8919 34.9467 11.6306 35.1885 11.3528C34.7612 11.7936 34.2876 12.1871 33.7761 12.5265C33.1764 12.9296 32.6321 13.4093 32.1567 13.9534L32.3807 14.1336C32.6931 13.7381 33.042 13.3728 33.423 13.0428L35.7606 13.0185L33.5691 12.926C33.9689 12.5914 34.3985 12.2939 34.8522 12.0371C35.4667 11.9031 36.0936 11.8346 36.7224 11.8324Z" fill="#5FA348"/>
<path d="M32.047 12.2658C32.1409 11.6334 32.1145 10.989 31.9691 10.3664C32.0887 10.9415 32.0979 11.5339 31.9958 12.1123C31.8473 11.6742 31.6649 11.2484 31.4504 10.8387H31.465L31.0777 9.34354L31.3432 10.6267C31.0655 10.1319 30.7393 9.66626 30.3691 9.23633C30.8912 9.90639 31.3083 10.6519 31.6061 11.4473C31.1352 11.0934 30.7178 10.6735 30.3665 10.2006C30.7236 10.742 31.1641 11.2236 31.6716 11.6274C31.9691 12.4709 32.1246 13.3579 32.1318 14.2523H32.4215C32.3778 13.5778 32.2518 12.9106 32.047 12.2658Z" fill="#5FA348"/>
<path d="M39.1014 7.3202C38.7442 7.30234 38.3859 7.31127 38.0301 7.3469C38.2712 7.27488 38.4942 7.15296 38.6851 6.98899C38.4408 7.18063 38.15 7.30419 37.8426 7.3469V7.364C37.6332 7.3907 37.4236 7.4248 37.2168 7.4662C36.9733 7.51981 36.7298 7.58562 36.4863 7.66352C36.734 7.45356 36.9483 7.20733 37.1218 6.93298C36.9057 7.24001 36.6359 7.50564 36.3255 7.71712C35.6832 7.93285 35.073 8.23411 34.5114 8.61327L34.6648 8.81538C34.9909 8.56718 35.3379 8.34796 35.7021 8.16035C36.2689 8.10609 36.8396 8.10609 37.4065 8.16035C36.9055 8.08408 36.3988 8.049 35.892 8.05575C36.369 7.82738 36.8683 7.64946 37.3822 7.52482C37.7992 7.4808 38.2202 7.55151 38.5998 7.72933C38.3209 7.57941 38.0144 7.48821 37.6989 7.46152C38.1608 7.36934 38.6304 7.32195 39.1014 7.3202Z" fill="#5FA348"/>
<path d="M34.9667 5.4185C34.9914 5.93701 34.9304 6.45628 34.7865 6.95496C34.7484 6.49147 34.6669 6.03245 34.543 5.58411C34.6301 5.13772 34.6383 4.67946 34.5673 4.23014C34.624 4.63588 34.6059 5.04849 34.5137 5.4477C34.3895 5.02049 34.2265 4.60559 34.0267 4.20813C34.339 4.92635 34.5339 5.69023 34.6038 6.47034C34.3928 6.08246 34.2206 5.67465 34.0901 5.25278C34.2152 5.74176 34.3941 6.21549 34.6234 6.66515C34.6746 7.40135 34.6098 8.14081 34.4311 8.85664L34.6746 8.91504C34.7826 8.3536 34.8242 7.78159 34.7988 7.21057C34.9671 6.62919 35.024 6.02112 34.9667 5.4185Z" fill="#5FA348"/>
<path d="M40.9838 4.05235C40.5845 4.02565 40.1827 4.02064 39.7834 4.03285C40.3315 3.79369 40.9027 3.61098 41.4878 3.48742C40.8141 3.59605 40.1549 3.78073 39.5227 4.03786C39.3206 4.12055 39.1186 4.21077 38.9237 4.30806C39.1699 4.07141 39.3669 3.78835 39.5032 3.47522C39.3098 3.86854 39.0169 4.20423 38.6535 4.44927C37.8151 4.89489 37.0525 5.47005 36.3938 6.15374L36.6373 6.35585C37.0345 5.89595 37.4792 5.47964 37.9644 5.11388C38.4866 4.99818 39.0196 4.93694 39.5544 4.93128C39.0727 4.91014 38.5898 4.93542 38.1129 5.00678C38.5924 4.65868 39.1056 4.35927 39.6446 4.11314C40.0894 4.06836 40.5367 4.0481 40.9838 4.05235Z" fill="#5FA348"/>
</g>
<defs>
<clipPath id="clip0_1306_7223">
<rect width="24" height="24" fill="white" transform="translate(18)"/>
</clipPath>
</defs>
</svg>
