<svg width="32" height="32" viewBox="0 0 32 32" fill="none" xmlns="http://www.w3.org/2000/svg">
<path d="M12.879 25.7469C15.7392 25.747 18.5176 24.7927 20.7741 23.0352L29.2871 31.5482C29.9231 32.1624 30.9364 32.1448 31.5506 31.5088C32.1498 30.8884 32.1498 29.905 31.5506 29.2847L23.0376 20.7717C27.3988 15.1576 26.3832 7.07109 20.7692 2.70988C15.1551 -1.65133 7.06865 -0.635752 2.70744 4.9783C-1.65377 10.5924 -0.638194 18.6789 4.97586 23.0401C7.23603 24.7959 10.0169 25.7484 12.879 25.7469ZM6.03886 6.03638C9.8166 2.25857 15.9415 2.2585 19.7193 6.03624C23.4972 9.81398 23.4972 15.9389 19.7195 19.7167C15.9417 23.4945 9.81681 23.4946 6.039 19.7169C6.03893 19.7168 6.03893 19.7168 6.03886 19.7167C2.26112 15.9665 2.23886 9.8639 5.98908 6.08616C6.00565 6.06952 6.02222 6.05295 6.03886 6.03638Z" fill="white" fill-opacity="0.55"/>
</svg>
