<svg width="32" height="32" viewBox="0 0 32 32" fill="none" xmlns="http://www.w3.org/2000/svg">
<g clip-path="url(#clip0_1232_8906)">
<path d="M24.2511 23.7783C22.2032 23.7783 20.5146 25.431 20.5146 27.5148C20.5146 29.5626 22.1673 31.2512 24.2511 31.2512C26.299 31.2512 27.9876 29.5986 27.9876 27.5148C27.9516 25.4669 26.299 23.7783 24.2511 23.7783Z" fill="white" fill-opacity="0.55"/>
<path d="M30.8258 5.95827C30.754 5.95827 30.6462 5.92235 30.5384 5.92235H7.90406L7.54478 3.5152C7.32922 1.93439 5.96397 0.748779 4.34723 0.748779H1.4371C0.646696 0.748779 0 1.39548 0 2.18588C0 2.97629 0.646696 3.62298 1.4371 3.62298H4.34723C4.52687 3.62298 4.67058 3.76669 4.70651 3.94633L6.93402 19.1078C7.22144 21.0119 8.8741 22.449 10.8142 22.449H25.76C27.6283 22.449 29.245 21.1197 29.6402 19.2874L31.9755 7.61094C32.1192 6.85646 31.6162 6.10198 30.8258 5.95827Z" fill="white" fill-opacity="0.55"/>
<path d="M15.0896 27.3351C15.0177 25.3591 13.3651 23.7783 11.3891 23.7783C9.30526 23.8861 7.72445 25.6106 7.7963 27.6585C7.86816 29.6345 9.4849 31.2153 11.4609 31.2153H11.5328C13.5806 31.1075 15.1974 29.383 15.0896 27.3351Z" fill="white" fill-opacity="0.55"/>
</g>
<defs>
<clipPath id="clip0_1232_8906">
<rect width="32" height="32" fill="white"/>
</clipPath>
</defs>
</svg>
