<svg width="32" height="32" viewBox="0 0 32 32" fill="none" xmlns="http://www.w3.org/2000/svg">
<g clip-path="url(#clip0_1232_8920)">
<path d="M13.147 15.4146C15.2647 15.4146 17.0984 14.655 18.5967 13.1565C20.095 11.6582 20.8545 9.82496 20.8545 7.70704C20.8545 5.58985 20.095 3.75635 18.5965 2.25757C17.098 0.759522 15.2645 0 13.147 0C11.0291 0 9.19586 0.759522 7.69757 2.25781C6.19928 3.75611 5.43951 5.5896 5.43951 7.70704C5.43951 9.82496 6.19928 11.6585 7.69781 13.1567C9.19635 14.6548 11.0298 15.4146 13.147 15.4146Z" fill="white" fill-opacity="0.55"/>
<path d="M26.633 24.6064C26.5898 23.9829 26.5024 23.3027 26.3738 22.5844C26.2439 21.8608 26.0766 21.1767 25.8765 20.5515C25.6697 19.9053 25.3884 19.2671 25.0408 18.6555C24.6799 18.0207 24.2561 17.468 23.7805 17.0132C23.2832 16.5373 22.6743 16.1548 21.9702 15.8757C21.2686 15.5981 20.491 15.4575 19.6592 15.4575C19.3325 15.4575 19.0166 15.5916 18.4065 15.9888C18.031 16.2336 17.5918 16.5168 17.1016 16.8301C16.6824 17.0972 16.1145 17.3474 15.4131 17.574C14.7288 17.7954 14.034 17.9077 13.3482 17.9077C12.6624 17.9077 11.9678 17.7954 11.2828 17.574C10.5821 17.3476 10.0142 17.0974 9.59551 16.8303C9.10992 16.52 8.67047 16.2368 8.28937 15.9885C7.67999 15.5913 7.36383 15.4573 7.03717 15.4573C6.20515 15.4573 5.4278 15.5981 4.72639 15.876C4.02278 16.1545 3.41365 16.5371 2.91585 17.0134C2.44051 17.4685 2.01644 18.021 1.65609 18.6555C1.30868 19.2671 1.02743 19.905 0.820401 20.5517C0.62045 21.177 0.453215 21.8608 0.323332 22.5844C0.194671 23.3017 0.107269 23.9821 0.0640562 24.6071C0.0215758 25.2194 9.15527e-05 25.8549 9.15527e-05 26.4968C9.15527e-05 28.1672 0.531095 29.5195 1.57821 30.5168C2.61239 31.5009 3.98079 32.0002 5.64484 32.0002H21.053C22.717 32.0002 24.085 31.5012 25.1194 30.5168C26.1667 29.5202 26.6977 28.1677 26.6977 26.4965C26.6975 25.8518 26.6758 25.2158 26.633 24.6064Z" fill="white" fill-opacity="0.55"/>
</g>
<defs>
<clipPath id="clip0_1232_8920">
<rect width="32" height="32" fill="white"/>
</clipPath>
</defs>
</svg>
